<svg width="192" height="154" viewBox="0 0 192 154" fill="none" xmlns="http://www.w3.org/2000/svg">
<ellipse cx="3.42857" cy="3.5" rx="3.42857" ry="3.5" fill="#FCEDDE"/>
<ellipse cx="3.42857" cy="24.5" rx="3.42857" ry="3.5" fill="#FCEDDE"/>
<ellipse cx="3.42857" cy="45.5" rx="3.42857" ry="3.5" fill="#FCEDDE"/>
<ellipse cx="3.42857" cy="66.5" rx="3.42857" ry="3.5" fill="#FCEDDE"/>
<ellipse cx="3.42857" cy="87.5" rx="3.42857" ry="3.5" fill="#FCEDDE"/>
<ellipse cx="3.42857" cy="108.5" rx="3.42857" ry="3.5" fill="#FCEDDE"/>
<ellipse cx="3.42857" cy="129.5" rx="3.42857" ry="3.5" fill="#FCEDDE"/>
<ellipse cx="3.42857" cy="150.5" rx="3.42857" ry="3.5" fill="#FCEDDE"/>
<ellipse cx="24.0003" cy="3.5" rx="3.42857" ry="3.5" fill="#FCEDDE"/>
<ellipse cx="24.0003" cy="24.5" rx="3.42857" ry="3.5" fill="#FCEDDE"/>
<ellipse cx="24.0003" cy="45.5" rx="3.42857" ry="3.5" fill="#FCEDDE"/>
<ellipse cx="24.0003" cy="66.5" rx="3.42857" ry="3.5" fill="#FCEDDE"/>
<ellipse cx="24.0003" cy="87.5" rx="3.42857" ry="3.5" fill="#FCEDDE"/>
<ellipse cx="24.0003" cy="108.5" rx="3.42857" ry="3.5" fill="#FCEDDE"/>
<ellipse cx="24.0003" cy="129.5" rx="3.42857" ry="3.5" fill="#FCEDDE"/>
<ellipse cx="24.0003" cy="150.5" rx="3.42857" ry="3.5" fill="#FCEDDE"/>
<ellipse cx="44.5716" cy="3.5" rx="3.42857" ry="3.5" fill="#FCEDDE"/>
<ellipse cx="44.5716" cy="24.5" rx="3.42857" ry="3.5" fill="#FCEDDE"/>
<ellipse cx="44.5716" cy="45.5" rx="3.42857" ry="3.5" fill="#FCEDDE"/>
<ellipse cx="44.5716" cy="66.5" rx="3.42857" ry="3.5" fill="#FCEDDE"/>
<ellipse cx="44.5716" cy="87.5" rx="3.42857" ry="3.5" fill="#FCEDDE"/>
<ellipse cx="44.5716" cy="108.5" rx="3.42857" ry="3.5" fill="#FCEDDE"/>
<ellipse cx="44.5716" cy="129.5" rx="3.42857" ry="3.5" fill="#FCEDDE"/>
<ellipse cx="44.5716" cy="150.5" rx="3.42857" ry="3.5" fill="#FCEDDE"/>
<ellipse cx="65.1429" cy="3.5" rx="3.42857" ry="3.5" fill="#FCEDDE"/>
<ellipse cx="65.1429" cy="24.5" rx="3.42857" ry="3.5" fill="#FCEDDE"/>
<ellipse cx="65.1429" cy="45.5" rx="3.42857" ry="3.5" fill="#FCEDDE"/>
<ellipse cx="65.1429" cy="66.5" rx="3.42857" ry="3.5" fill="#FCEDDE"/>
<ellipse cx="65.1429" cy="87.5" rx="3.42857" ry="3.5" fill="#FCEDDE"/>
<ellipse cx="65.1429" cy="108.5" rx="3.42857" ry="3.5" fill="#FCEDDE"/>
<ellipse cx="65.1429" cy="129.5" rx="3.42857" ry="3.5" fill="#FCEDDE"/>
<ellipse cx="65.1429" cy="150.5" rx="3.42857" ry="3.5" fill="#FCEDDE"/>
<ellipse cx="85.7142" cy="3.5" rx="3.42857" ry="3.5" fill="#FCEDDE"/>
<ellipse cx="85.7142" cy="24.5" rx="3.42857" ry="3.5" fill="#FCEDDE"/>
<ellipse cx="85.7142" cy="45.5" rx="3.42857" ry="3.5" fill="#FCEDDE"/>
<ellipse cx="85.7142" cy="66.5" rx="3.42857" ry="3.5" fill="#FCEDDE"/>
<ellipse cx="85.7142" cy="87.5" rx="3.42857" ry="3.5" fill="#FCEDDE"/>
<ellipse cx="85.7142" cy="108.5" rx="3.42857" ry="3.5" fill="#FCEDDE"/>
<ellipse cx="85.7142" cy="129.5" rx="3.42857" ry="3.5" fill="#FCEDDE"/>
<ellipse cx="85.7142" cy="150.5" rx="3.42857" ry="3.5" fill="#FCEDDE"/>
<ellipse cx="106.286" cy="3.5" rx="3.42857" ry="3.5" fill="#FCEDDE"/>
<ellipse cx="106.286" cy="24.5" rx="3.42857" ry="3.5" fill="#FCEDDE"/>
<ellipse cx="106.286" cy="45.5" rx="3.42857" ry="3.5" fill="#FCEDDE"/>
<ellipse cx="106.286" cy="66.5" rx="3.42857" ry="3.5" fill="#FCEDDE"/>
<ellipse cx="106.286" cy="87.5" rx="3.42857" ry="3.5" fill="#FCEDDE"/>
<ellipse cx="106.286" cy="108.5" rx="3.42857" ry="3.5" fill="#FCEDDE"/>
<ellipse cx="106.286" cy="129.5" rx="3.42857" ry="3.5" fill="#FCEDDE"/>
<ellipse cx="106.286" cy="150.5" rx="3.42857" ry="3.5" fill="#FCEDDE"/>
<ellipse cx="126.857" cy="3.5" rx="3.42857" ry="3.5" fill="#FCEDDE"/>
<ellipse cx="126.857" cy="24.5" rx="3.42857" ry="3.5" fill="#FCEDDE"/>
<ellipse cx="126.857" cy="45.5" rx="3.42857" ry="3.5" fill="#FCEDDE"/>
<ellipse cx="126.857" cy="66.5" rx="3.42857" ry="3.5" fill="#FCEDDE"/>
<ellipse cx="126.857" cy="87.5" rx="3.42857" ry="3.5" fill="#FCEDDE"/>
<ellipse cx="126.857" cy="108.5" rx="3.42857" ry="3.5" fill="#FCEDDE"/>
<ellipse cx="126.857" cy="129.5" rx="3.42857" ry="3.5" fill="#FCEDDE"/>
<ellipse cx="126.857" cy="150.5" rx="3.42857" ry="3.5" fill="#FCEDDE"/>
<ellipse cx="147.429" cy="3.5" rx="3.42857" ry="3.5" fill="#FCEDDE"/>
<ellipse cx="147.429" cy="24.5" rx="3.42857" ry="3.5" fill="#FCEDDE"/>
<ellipse cx="147.429" cy="45.5" rx="3.42857" ry="3.5" fill="#FCEDDE"/>
<ellipse cx="147.429" cy="66.5" rx="3.42857" ry="3.5" fill="#FCEDDE"/>
<ellipse cx="147.429" cy="87.5" rx="3.42857" ry="3.5" fill="#FCEDDE"/>
<ellipse cx="147.429" cy="108.5" rx="3.42857" ry="3.5" fill="#FCEDDE"/>
<ellipse cx="147.429" cy="129.5" rx="3.42857" ry="3.5" fill="#FCEDDE"/>
<ellipse cx="147.429" cy="150.5" rx="3.42857" ry="3.5" fill="#FCEDDE"/>
<ellipse cx="168" cy="3.5" rx="3.42857" ry="3.5" fill="#FCEDDE"/>
<ellipse cx="168" cy="24.5" rx="3.42857" ry="3.5" fill="#FCEDDE"/>
<ellipse cx="168" cy="45.5" rx="3.42857" ry="3.5" fill="#FCEDDE"/>
<ellipse cx="168" cy="66.5" rx="3.42857" ry="3.5" fill="#FCEDDE"/>
<ellipse cx="168" cy="87.5" rx="3.42857" ry="3.5" fill="#FCEDDE"/>
<ellipse cx="168" cy="108.5" rx="3.42857" ry="3.5" fill="#FCEDDE"/>
<ellipse cx="168" cy="129.5" rx="3.42857" ry="3.5" fill="#FCEDDE"/>
<ellipse cx="168" cy="150.5" rx="3.42857" ry="3.5" fill="#FCEDDE"/>
<ellipse cx="188.572" cy="3.5" rx="3.42857" ry="3.5" fill="#FCEDDE"/>
<ellipse cx="188.572" cy="24.5" rx="3.42857" ry="3.5" fill="#FCEDDE"/>
<ellipse cx="188.572" cy="45.5" rx="3.42857" ry="3.5" fill="#FCEDDE"/>
<ellipse cx="188.572" cy="66.5" rx="3.42857" ry="3.5" fill="#FCEDDE"/>
<ellipse cx="188.572" cy="87.5" rx="3.42857" ry="3.5" fill="#FCEDDE"/>
<ellipse cx="188.572" cy="108.5" rx="3.42857" ry="3.5" fill="#FCEDDE"/>
<ellipse cx="188.572" cy="129.5" rx="3.42857" ry="3.5" fill="#FCEDDE"/>
<ellipse cx="188.572" cy="150.5" rx="3.42857" ry="3.5" fill="#FCEDDE"/>
</svg>
