<svg width="24" height="18" viewBox="0 0 24 18" fill="none" xmlns="http://www.w3.org/2000/svg">
<path d="M1.73115 18V16.6667C4.15956 15.3099 5.75847 14.0936 6.52787 13.0175C7.29727 11.9415 7.68197 10.6784 7.68197 9.22807C7.68197 8.5731 7.54973 8.08187 7.28525 7.75439C7.02076 7.4269 6.74426 7.26316 6.45574 7.26316C6.19126 7.26316 5.79454 7.35673 5.26557 7.54386C4.73661 7.731 4.20765 7.82456 3.67869 7.82456C2.6929 7.82456 1.83934 7.47368 1.11803 6.77193C0.372677 6.09357 0 5.25146 0 4.24561C0 3.09941 0.468854 2.10526 1.40656 1.26316C2.32022 0.421053 3.45027 0 4.79672 0C6.38361 0 7.81421 0.666666 9.08852 2C10.3628 3.33333 11 4.99415 11 6.98246C11 9.4386 10.1945 11.6725 8.58361 13.6842C6.97268 15.7193 4.68852 17.1579 1.73115 18Z" fill="#FCEDDE"/>
<path d="M14.7311 18V16.6667C17.1596 15.3099 18.7585 14.0936 19.5279 13.0175C20.2973 11.9415 20.682 10.6784 20.682 9.22807C20.682 8.5731 20.5497 8.08187 20.2852 7.75439C20.0208 7.4269 19.7443 7.26316 19.4557 7.26316C19.1913 7.26316 18.7945 7.35673 18.2656 7.54386C17.7366 7.731 17.2077 7.82456 16.6787 7.82456C15.6929 7.82456 14.8393 7.47368 14.118 6.77193C13.3727 6.09357 13 5.25146 13 4.24561C13 3.09941 13.4689 2.10526 14.4066 1.26316C15.3202 0.421053 16.4503 0 17.7967 0C19.3836 0 20.8142 0.666666 22.0885 2C23.3628 3.33333 24 4.99415 24 6.98246C24 9.4386 23.1945 11.6725 21.5836 13.6842C19.9727 15.7193 17.6885 17.1579 14.7311 18Z" fill="#FCEDDE"/>
</svg>
