<svg width="193" height="154" viewBox="0 0 193 154" fill="none" xmlns="http://www.w3.org/2000/svg">
<path d="M6.87295 3.5C6.87295 5.433 5.33439 7 3.43647 7C1.53856 7 0 5.433 0 3.5C0 1.567 1.53856 0 3.43647 0C5.33439 0 6.87295 1.567 6.87295 3.5Z" fill="#E2F2EA"/>
<path d="M6.87295 24.5C6.87295 26.433 5.33439 28 3.43647 28C1.53856 28 0 26.433 0 24.5C0 22.567 1.53856 21 3.43647 21C5.33439 21 6.87295 22.567 6.87295 24.5Z" fill="#E2F2EA"/>
<path d="M6.87295 45.5C6.87295 47.433 5.33439 49 3.43647 49C1.53856 49 0 47.433 0 45.5C0 43.567 1.53856 42 3.43647 42C5.33439 42 6.87295 43.567 6.87295 45.5Z" fill="#E2F2EA"/>
<path d="M6.87295 66.5C6.87295 68.433 5.33439 70 3.43647 70C1.53856 70 0 68.433 0 66.5C0 64.567 1.53856 63 3.43647 63C5.33439 63 6.87295 64.567 6.87295 66.5Z" fill="#E2F2EA"/>
<path d="M6.87295 87.5C6.87295 89.433 5.33439 91 3.43647 91C1.53856 91 0 89.433 0 87.5C0 85.567 1.53856 84 3.43647 84C5.33439 84 6.87295 85.567 6.87295 87.5Z" fill="#E2F2EA"/>
<path d="M6.87295 108.5C6.87295 110.433 5.33439 112 3.43647 112C1.53856 112 0 110.433 0 108.5C0 106.567 1.53856 105 3.43647 105C5.33439 105 6.87295 106.567 6.87295 108.5Z" fill="#E2F2EA"/>
<path d="M6.87295 129.5C6.87295 131.433 5.33439 133 3.43647 133C1.53856 133 0 131.433 0 129.5C0 127.567 1.53856 126 3.43647 126C5.33439 126 6.87295 127.567 6.87295 129.5Z" fill="#E2F2EA"/>
<path d="M6.87295 150.5C6.87295 152.433 5.33439 154 3.43647 154C1.53856 154 0 152.433 0 150.5C0 148.567 1.53856 147 3.43647 147C5.33439 147 6.87295 148.567 6.87295 150.5Z" fill="#E2F2EA"/>
<path d="M27.4921 3.5C27.4921 5.433 25.9535 7 24.0556 7C22.1577 7 20.6191 5.433 20.6191 3.5C20.6191 1.567 22.1577 0 24.0556 0C25.9535 0 27.4921 1.567 27.4921 3.5Z" fill="#E2F2EA"/>
<path d="M27.4921 24.5C27.4921 26.433 25.9535 28 24.0556 28C22.1577 28 20.6191 26.433 20.6191 24.5C20.6191 22.567 22.1577 21 24.0556 21C25.9535 21 27.4921 22.567 27.4921 24.5Z" fill="#E2F2EA"/>
<path d="M27.4921 45.5C27.4921 47.433 25.9535 49 24.0556 49C22.1577 49 20.6191 47.433 20.6191 45.5C20.6191 43.567 22.1577 42 24.0556 42C25.9535 42 27.4921 43.567 27.4921 45.5Z" fill="#E2F2EA"/>
<path d="M27.4921 66.5C27.4921 68.433 25.9535 70 24.0556 70C22.1577 70 20.6191 68.433 20.6191 66.5C20.6191 64.567 22.1577 63 24.0556 63C25.9535 63 27.4921 64.567 27.4921 66.5Z" fill="#E2F2EA"/>
<path d="M27.4921 87.5C27.4921 89.433 25.9535 91 24.0556 91C22.1577 91 20.6191 89.433 20.6191 87.5C20.6191 85.567 22.1577 84 24.0556 84C25.9535 84 27.4921 85.567 27.4921 87.5Z" fill="#E2F2EA"/>
<path d="M27.4921 108.5C27.4921 110.433 25.9535 112 24.0556 112C22.1577 112 20.6191 110.433 20.6191 108.5C20.6191 106.567 22.1577 105 24.0556 105C25.9535 105 27.4921 106.567 27.4921 108.5Z" fill="#E2F2EA"/>
<path d="M27.4921 129.5C27.4921 131.433 25.9535 133 24.0556 133C22.1577 133 20.6191 131.433 20.6191 129.5C20.6191 127.567 22.1577 126 24.0556 126C25.9535 126 27.4921 127.567 27.4921 129.5Z" fill="#E2F2EA"/>
<path d="M27.4921 150.5C27.4921 152.433 25.9535 154 24.0556 154C22.1577 154 20.6191 152.433 20.6191 150.5C20.6191 148.567 22.1577 147 24.0556 147C25.9535 147 27.4921 148.567 27.4921 150.5Z" fill="#E2F2EA"/>
<path d="M48.1107 3.5C48.1107 5.433 46.5722 7 44.6743 7C42.7764 7 41.2378 5.433 41.2378 3.5C41.2378 1.567 42.7764 0 44.6743 0C46.5722 0 48.1107 1.567 48.1107 3.5Z" fill="#E2F2EA"/>
<path d="M48.1107 24.5C48.1107 26.433 46.5722 28 44.6743 28C42.7764 28 41.2378 26.433 41.2378 24.5C41.2378 22.567 42.7764 21 44.6743 21C46.5722 21 48.1107 22.567 48.1107 24.5Z" fill="#E2F2EA"/>
<path d="M48.1107 45.5C48.1107 47.433 46.5722 49 44.6743 49C42.7764 49 41.2378 47.433 41.2378 45.5C41.2378 43.567 42.7764 42 44.6743 42C46.5722 42 48.1107 43.567 48.1107 45.5Z" fill="#E2F2EA"/>
<path d="M48.1107 66.5C48.1107 68.433 46.5722 70 44.6743 70C42.7764 70 41.2378 68.433 41.2378 66.5C41.2378 64.567 42.7764 63 44.6743 63C46.5722 63 48.1107 64.567 48.1107 66.5Z" fill="#E2F2EA"/>
<path d="M48.1107 87.5C48.1107 89.433 46.5722 91 44.6743 91C42.7764 91 41.2378 89.433 41.2378 87.5C41.2378 85.567 42.7764 84 44.6743 84C46.5722 84 48.1107 85.567 48.1107 87.5Z" fill="#E2F2EA"/>
<path d="M48.1107 108.5C48.1107 110.433 46.5722 112 44.6743 112C42.7764 112 41.2378 110.433 41.2378 108.5C41.2378 106.567 42.7764 105 44.6743 105C46.5722 105 48.1107 106.567 48.1107 108.5Z" fill="#E2F2EA"/>
<path d="M48.1107 129.5C48.1107 131.433 46.5722 133 44.6743 133C42.7764 133 41.2378 131.433 41.2378 129.5C41.2378 127.567 42.7764 126 44.6743 126C46.5722 126 48.1107 127.567 48.1107 129.5Z" fill="#E2F2EA"/>
<path d="M48.1107 150.5C48.1107 152.433 46.5722 154 44.6743 154C42.7764 154 41.2378 152.433 41.2378 150.5C41.2378 148.567 42.7764 147 44.6743 147C46.5722 147 48.1107 148.567 48.1107 150.5Z" fill="#E2F2EA"/>
<path d="M68.7299 3.5C68.7299 5.433 67.1913 7 65.2934 7C63.3955 7 61.8569 5.433 61.8569 3.5C61.8569 1.567 63.3955 0 65.2934 0C67.1913 0 68.7299 1.567 68.7299 3.5Z" fill="#E2F2EA"/>
<path d="M68.7299 24.5C68.7299 26.433 67.1913 28 65.2934 28C63.3955 28 61.8569 26.433 61.8569 24.5C61.8569 22.567 63.3955 21 65.2934 21C67.1913 21 68.7299 22.567 68.7299 24.5Z" fill="#E2F2EA"/>
<path d="M68.7299 45.5C68.7299 47.433 67.1913 49 65.2934 49C63.3955 49 61.8569 47.433 61.8569 45.5C61.8569 43.567 63.3955 42 65.2934 42C67.1913 42 68.7299 43.567 68.7299 45.5Z" fill="#E2F2EA"/>
<path d="M68.7299 66.5C68.7299 68.433 67.1913 70 65.2934 70C63.3955 70 61.8569 68.433 61.8569 66.5C61.8569 64.567 63.3955 63 65.2934 63C67.1913 63 68.7299 64.567 68.7299 66.5Z" fill="#E2F2EA"/>
<path d="M68.7299 87.5C68.7299 89.433 67.1913 91 65.2934 91C63.3955 91 61.8569 89.433 61.8569 87.5C61.8569 85.567 63.3955 84 65.2934 84C67.1913 84 68.7299 85.567 68.7299 87.5Z" fill="#E2F2EA"/>
<path d="M68.7299 108.5C68.7299 110.433 67.1913 112 65.2934 112C63.3955 112 61.8569 110.433 61.8569 108.5C61.8569 106.567 63.3955 105 65.2934 105C67.1913 105 68.7299 106.567 68.7299 108.5Z" fill="#E2F2EA"/>
<path d="M68.7299 129.5C68.7299 131.433 67.1913 133 65.2934 133C63.3955 133 61.8569 131.433 61.8569 129.5C61.8569 127.567 63.3955 126 65.2934 126C67.1913 126 68.7299 127.567 68.7299 129.5Z" fill="#E2F2EA"/>
<path d="M68.7299 150.5C68.7299 152.433 67.1913 154 65.2934 154C63.3955 154 61.8569 152.433 61.8569 150.5C61.8569 148.567 63.3955 147 65.2934 147C67.1913 147 68.7299 148.567 68.7299 150.5Z" fill="#E2F2EA"/>
<path d="M89.3485 3.5C89.3485 5.433 87.81 7 85.9121 7C84.0141 7 82.4756 5.433 82.4756 3.5C82.4756 1.567 84.0141 0 85.9121 0C87.81 0 89.3485 1.567 89.3485 3.5Z" fill="#E2F2EA"/>
<path d="M89.3485 24.5C89.3485 26.433 87.81 28 85.9121 28C84.0141 28 82.4756 26.433 82.4756 24.5C82.4756 22.567 84.0141 21 85.9121 21C87.81 21 89.3485 22.567 89.3485 24.5Z" fill="#E2F2EA"/>
<path d="M89.3485 45.5C89.3485 47.433 87.81 49 85.9121 49C84.0141 49 82.4756 47.433 82.4756 45.5C82.4756 43.567 84.0141 42 85.9121 42C87.81 42 89.3485 43.567 89.3485 45.5Z" fill="#E2F2EA"/>
<path d="M89.3485 66.5C89.3485 68.433 87.81 70 85.9121 70C84.0141 70 82.4756 68.433 82.4756 66.5C82.4756 64.567 84.0141 63 85.9121 63C87.81 63 89.3485 64.567 89.3485 66.5Z" fill="#E2F2EA"/>
<path d="M89.3485 87.5C89.3485 89.433 87.81 91 85.9121 91C84.0141 91 82.4756 89.433 82.4756 87.5C82.4756 85.567 84.0141 84 85.9121 84C87.81 84 89.3485 85.567 89.3485 87.5Z" fill="#E2F2EA"/>
<path d="M89.3485 108.5C89.3485 110.433 87.81 112 85.9121 112C84.0141 112 82.4756 110.433 82.4756 108.5C82.4756 106.567 84.0141 105 85.9121 105C87.81 105 89.3485 106.567 89.3485 108.5Z" fill="#E2F2EA"/>
<path d="M89.3485 129.5C89.3485 131.433 87.81 133 85.9121 133C84.0141 133 82.4756 131.433 82.4756 129.5C82.4756 127.567 84.0141 126 85.9121 126C87.81 126 89.3485 127.567 89.3485 129.5Z" fill="#E2F2EA"/>
<path d="M89.3485 150.5C89.3485 152.433 87.81 154 85.9121 154C84.0141 154 82.4756 152.433 82.4756 150.5C82.4756 148.567 84.0141 147 85.9121 147C87.81 147 89.3485 148.567 89.3485 150.5Z" fill="#E2F2EA"/>
<path d="M109.967 3.5C109.967 5.433 108.429 7 106.531 7C104.633 7 103.094 5.433 103.094 3.5C103.094 1.567 104.633 0 106.531 0C108.429 0 109.967 1.567 109.967 3.5Z" fill="#E2F2EA"/>
<path d="M109.967 24.5C109.967 26.433 108.429 28 106.531 28C104.633 28 103.094 26.433 103.094 24.5C103.094 22.567 104.633 21 106.531 21C108.429 21 109.967 22.567 109.967 24.5Z" fill="#E2F2EA"/>
<path d="M109.967 45.5C109.967 47.433 108.429 49 106.531 49C104.633 49 103.094 47.433 103.094 45.5C103.094 43.567 104.633 42 106.531 42C108.429 42 109.967 43.567 109.967 45.5Z" fill="#E2F2EA"/>
<path d="M109.967 66.5C109.967 68.433 108.429 70 106.531 70C104.633 70 103.094 68.433 103.094 66.5C103.094 64.567 104.633 63 106.531 63C108.429 63 109.967 64.567 109.967 66.5Z" fill="#E2F2EA"/>
<path d="M109.967 87.5C109.967 89.433 108.429 91 106.531 91C104.633 91 103.094 89.433 103.094 87.5C103.094 85.567 104.633 84 106.531 84C108.429 84 109.967 85.567 109.967 87.5Z" fill="#E2F2EA"/>
<path d="M109.967 108.5C109.967 110.433 108.429 112 106.531 112C104.633 112 103.094 110.433 103.094 108.5C103.094 106.567 104.633 105 106.531 105C108.429 105 109.967 106.567 109.967 108.5Z" fill="#E2F2EA"/>
<path d="M109.967 129.5C109.967 131.433 108.429 133 106.531 133C104.633 133 103.094 131.433 103.094 129.5C103.094 127.567 104.633 126 106.531 126C108.429 126 109.967 127.567 109.967 129.5Z" fill="#E2F2EA"/>
<path d="M109.967 150.5C109.967 152.433 108.429 154 106.531 154C104.633 154 103.094 152.433 103.094 150.5C103.094 148.567 104.633 147 106.531 147C108.429 147 109.967 148.567 109.967 150.5Z" fill="#E2F2EA"/>
<path d="M130.586 3.5C130.586 5.433 129.048 7 127.15 7C125.252 7 123.713 5.433 123.713 3.5C123.713 1.567 125.252 0 127.15 0C129.048 0 130.586 1.567 130.586 3.5Z" fill="#E2F2EA"/>
<path d="M130.586 24.5C130.586 26.433 129.048 28 127.15 28C125.252 28 123.713 26.433 123.713 24.5C123.713 22.567 125.252 21 127.15 21C129.048 21 130.586 22.567 130.586 24.5Z" fill="#E2F2EA"/>
<path d="M130.586 45.5C130.586 47.433 129.048 49 127.15 49C125.252 49 123.713 47.433 123.713 45.5C123.713 43.567 125.252 42 127.15 42C129.048 42 130.586 43.567 130.586 45.5Z" fill="#E2F2EA"/>
<path d="M130.586 66.5C130.586 68.433 129.048 70 127.15 70C125.252 70 123.713 68.433 123.713 66.5C123.713 64.567 125.252 63 127.15 63C129.048 63 130.586 64.567 130.586 66.5Z" fill="#E2F2EA"/>
<path d="M130.586 87.5C130.586 89.433 129.048 91 127.15 91C125.252 91 123.713 89.433 123.713 87.5C123.713 85.567 125.252 84 127.15 84C129.048 84 130.586 85.567 130.586 87.5Z" fill="#E2F2EA"/>
<path d="M130.586 108.5C130.586 110.433 129.048 112 127.15 112C125.252 112 123.713 110.433 123.713 108.5C123.713 106.567 125.252 105 127.15 105C129.048 105 130.586 106.567 130.586 108.5Z" fill="#E2F2EA"/>
<path d="M130.586 129.5C130.586 131.433 129.048 133 127.15 133C125.252 133 123.713 131.433 123.713 129.5C123.713 127.567 125.252 126 127.15 126C129.048 126 130.586 127.567 130.586 129.5Z" fill="#E2F2EA"/>
<path d="M130.586 150.5C130.586 152.433 129.048 154 127.15 154C125.252 154 123.713 152.433 123.713 150.5C123.713 148.567 125.252 147 127.15 147C129.048 147 130.586 148.567 130.586 150.5Z" fill="#E2F2EA"/>
<path d="M151.205 3.5C151.205 5.433 149.666 7 147.769 7C145.871 7 144.332 5.433 144.332 3.5C144.332 1.567 145.871 0 147.769 0C149.666 0 151.205 1.567 151.205 3.5Z" fill="#E2F2EA"/>
<path d="M151.205 24.5C151.205 26.433 149.666 28 147.769 28C145.871 28 144.332 26.433 144.332 24.5C144.332 22.567 145.871 21 147.769 21C149.666 21 151.205 22.567 151.205 24.5Z" fill="#E2F2EA"/>
<path d="M151.205 45.5C151.205 47.433 149.666 49 147.769 49C145.871 49 144.332 47.433 144.332 45.5C144.332 43.567 145.871 42 147.769 42C149.666 42 151.205 43.567 151.205 45.5Z" fill="#E2F2EA"/>
<path d="M151.205 66.5C151.205 68.433 149.666 70 147.769 70C145.871 70 144.332 68.433 144.332 66.5C144.332 64.567 145.871 63 147.769 63C149.666 63 151.205 64.567 151.205 66.5Z" fill="#E2F2EA"/>
<path d="M151.205 87.5C151.205 89.433 149.666 91 147.769 91C145.871 91 144.332 89.433 144.332 87.5C144.332 85.567 145.871 84 147.769 84C149.666 84 151.205 85.567 151.205 87.5Z" fill="#E2F2EA"/>
<path d="M151.205 108.5C151.205 110.433 149.666 112 147.769 112C145.871 112 144.332 110.433 144.332 108.5C144.332 106.567 145.871 105 147.769 105C149.666 105 151.205 106.567 151.205 108.5Z" fill="#E2F2EA"/>
<path d="M151.205 129.5C151.205 131.433 149.666 133 147.769 133C145.871 133 144.332 131.433 144.332 129.5C144.332 127.567 145.871 126 147.769 126C149.666 126 151.205 127.567 151.205 129.5Z" fill="#E2F2EA"/>
<path d="M151.205 150.5C151.205 152.433 149.666 154 147.769 154C145.871 154 144.332 152.433 144.332 150.5C144.332 148.567 145.871 147 147.769 147C149.666 147 151.205 148.567 151.205 150.5Z" fill="#E2F2EA"/>
<path d="M171.824 3.5C171.824 5.433 170.285 7 168.387 7C166.489 7 164.951 5.433 164.951 3.5C164.951 1.567 166.489 0 168.387 0C170.285 0 171.824 1.567 171.824 3.5Z" fill="#E2F2EA"/>
<path d="M171.824 24.5C171.824 26.433 170.285 28 168.387 28C166.489 28 164.951 26.433 164.951 24.5C164.951 22.567 166.489 21 168.387 21C170.285 21 171.824 22.567 171.824 24.5Z" fill="#E2F2EA"/>
<path d="M171.824 45.5C171.824 47.433 170.285 49 168.387 49C166.489 49 164.951 47.433 164.951 45.5C164.951 43.567 166.489 42 168.387 42C170.285 42 171.824 43.567 171.824 45.5Z" fill="#E2F2EA"/>
<path d="M171.824 66.5C171.824 68.433 170.285 70 168.387 70C166.489 70 164.951 68.433 164.951 66.5C164.951 64.567 166.489 63 168.387 63C170.285 63 171.824 64.567 171.824 66.5Z" fill="#E2F2EA"/>
<path d="M171.824 87.5C171.824 89.433 170.285 91 168.387 91C166.489 91 164.951 89.433 164.951 87.5C164.951 85.567 166.489 84 168.387 84C170.285 84 171.824 85.567 171.824 87.5Z" fill="#E2F2EA"/>
<path d="M171.824 108.5C171.824 110.433 170.285 112 168.387 112C166.489 112 164.951 110.433 164.951 108.5C164.951 106.567 166.489 105 168.387 105C170.285 105 171.824 106.567 171.824 108.5Z" fill="#E2F2EA"/>
<path d="M171.824 129.5C171.824 131.433 170.285 133 168.387 133C166.489 133 164.951 131.433 164.951 129.5C164.951 127.567 166.489 126 168.387 126C170.285 126 171.824 127.567 171.824 129.5Z" fill="#E2F2EA"/>
<path d="M171.824 150.5C171.824 152.433 170.285 154 168.387 154C166.489 154 164.951 152.433 164.951 150.5C164.951 148.567 166.489 147 168.387 147C170.285 147 171.824 148.567 171.824 150.5Z" fill="#E2F2EA"/>
<path d="M192.443 3.5C192.443 5.433 190.904 7 189.006 7C187.108 7 185.57 5.433 185.57 3.5C185.57 1.567 187.108 0 189.006 0C190.904 0 192.443 1.567 192.443 3.5Z" fill="#E2F2EA"/>
<path d="M192.443 24.5C192.443 26.433 190.904 28 189.006 28C187.108 28 185.57 26.433 185.57 24.5C185.57 22.567 187.108 21 189.006 21C190.904 21 192.443 22.567 192.443 24.5Z" fill="#E2F2EA"/>
<path d="M192.443 45.5C192.443 47.433 190.904 49 189.006 49C187.108 49 185.57 47.433 185.57 45.5C185.57 43.567 187.108 42 189.006 42C190.904 42 192.443 43.567 192.443 45.5Z" fill="#E2F2EA"/>
<path d="M192.443 66.5C192.443 68.433 190.904 70 189.006 70C187.108 70 185.57 68.433 185.57 66.5C185.57 64.567 187.108 63 189.006 63C190.904 63 192.443 64.567 192.443 66.5Z" fill="#E2F2EA"/>
<path d="M192.443 87.5C192.443 89.433 190.904 91 189.006 91C187.108 91 185.57 89.433 185.57 87.5C185.57 85.567 187.108 84 189.006 84C190.904 84 192.443 85.567 192.443 87.5Z" fill="#E2F2EA"/>
<path d="M192.443 108.5C192.443 110.433 190.904 112 189.006 112C187.108 112 185.57 110.433 185.57 108.5C185.57 106.567 187.108 105 189.006 105C190.904 105 192.443 106.567 192.443 108.5Z" fill="#E2F2EA"/>
<path d="M192.443 129.5C192.443 131.433 190.904 133 189.006 133C187.108 133 185.57 131.433 185.57 129.5C185.57 127.567 187.108 126 189.006 126C190.904 126 192.443 127.567 192.443 129.5Z" fill="#E2F2EA"/>
<path d="M192.443 150.5C192.443 152.433 190.904 154 189.006 154C187.108 154 185.57 152.433 185.57 150.5C185.57 148.567 187.108 147 189.006 147C190.904 147 192.443 148.567 192.443 150.5Z" fill="#E2F2EA"/>
</svg>
