<svg width="120" height="120" viewBox="0 0 120 120" fill="none" xmlns="http://www.w3.org/2000/svg">
<rect width="120" height="120" rx="60" fill="#E2F2EA"/>
<path d="M60.582 30.3057C61.8573 29.8028 63.2481 29.651 64.6045 29.8672C65.9571 30.0829 67.2243 30.6558 68.2715 31.5244L68.7734 31.9766L88.416 51.3643L88.417 51.3652C89.3876 52.3223 90.0756 53.5208 90.4082 54.832C90.7389 56.1358 90.7057 57.5031 90.3135 58.79L90.0811 59.4355L80.249 83.6963C79.748 84.9305 78.9217 86.0116 77.8535 86.8262C76.7852 87.6408 75.5141 88.1587 74.1729 88.3262L53.043 90.9336C52.4909 90.9965 51.9071 91.0764 51.3086 91.168L51.3037 91.1689L49.4551 91.4639L49.4424 91.4668L48.4766 91.6387L48.4678 91.6406L45.459 92.2158L45.4521 92.2168L45.4443 92.2188L43.3848 92.6543L43.3779 92.6553L40.2773 93.3418L40.2676 93.3438L36.293 94.2803L36.2822 94.2832L29.8232 95.9092L29.8135 95.9121L27.125 96.627L27.1211 96.6279C26.5624 96.7795 25.9733 96.7903 25.4092 96.6592C24.8452 96.528 24.3245 96.2593 23.8945 95.8789C23.4646 95.4985 23.1393 95.0184 22.9473 94.4834C22.7579 93.9556 22.703 93.3897 22.7891 92.8369L22.9248 92.2666L24.1465 87.7217L24.1494 87.7119L25.248 83.4072L25.25 83.3984L26.1992 79.4756L26.2012 79.4658L26.8965 76.4053L26.8984 76.3965L27.335 74.3594L27.3379 74.3477L27.9248 71.3818L27.9258 71.375L27.9268 71.3672L28.2598 69.4902L28.2617 69.4814L28.2627 69.4717L28.5293 67.7139L28.5312 67.7051L28.5322 67.6953L31.2783 46.0098C31.435 44.7953 31.8925 43.6365 32.6113 42.6367C33.2403 41.7619 34.0531 41.0325 34.9922 40.4961L35.4023 40.2783L35.9971 40.0098L60.582 30.3057ZM63.1191 36.5371L38.5156 46.252L38.1025 46.415L38.0469 46.8545L35.6172 66.0449L35.6162 66.0479L35.418 67.665C35.0635 70.291 34.6125 72.9036 34.0664 75.4971L33.8262 76.6074L33.1152 79.8359L32.5684 82.3135L34.374 80.5312L48.0576 67.0264L48.3691 66.7188L48.2549 66.2959C47.8244 64.7106 47.9358 63.0296 48.5723 61.5127C49.2088 59.9958 50.3351 58.7264 51.7793 57.9033C53.2237 57.0801 54.9043 56.7498 56.5596 56.9648C58.2148 57.1799 59.7505 57.9279 60.9287 59.0908C62.1067 60.2535 62.8621 61.7657 63.0791 63.3926C63.2961 65.0194 62.963 66.6723 62.1309 68.0947C61.2986 69.5173 60.0123 70.6306 58.4707 71.2607C56.9291 71.8908 55.2196 72.0016 53.6074 71.5752L53.1934 71.4658L52.8887 71.7666L39.2051 85.2715L37.3594 87.0928L39.8926 86.5381L41.5146 86.1816L41.5156 86.1826L44.7734 85.5049L44.7744 85.5059C46.7884 85.0989 48.8132 84.7447 50.8467 84.4463L50.8477 84.4473L73.3086 81.6699L73.7461 81.6162L73.9111 81.208L83.7539 56.9248L83.9414 56.4609L83.5859 56.1094L63.9219 36.7012L63.5742 36.3584L63.1191 36.5371ZM75.9561 23.2568C76.783 23.2049 77.6 23.4511 78.2549 23.9473L78.6016 24.2539L96.2402 41.6631L96.2432 41.665C96.8605 42.2686 97.2187 43.0806 97.248 43.9336C97.2774 44.7865 96.9753 45.6197 96.4014 46.2627C95.827 46.9061 95.0229 47.3112 94.1533 47.3906C93.2883 47.4695 92.4269 47.22 91.7432 46.6963L91.3838 46.3789L73.7559 28.9795C73.1174 28.3491 72.7608 27.4964 72.7607 26.6094C72.7607 25.7224 73.1174 24.8696 73.7559 24.2393V24.2383C74.3421 23.6589 75.1244 23.3092 75.9561 23.2568Z" fill="#1EA965" stroke="#E2F2EA" stroke-width="1.5"/>
</svg>
