<svg width="120" height="120" viewBox="0 0 120 120" fill="none" xmlns="http://www.w3.org/2000/svg">
<rect width="120" height="120" rx="60" fill="#FCEDDE"/>
<path d="M68.4751 25.1943C68.8462 25.1501 69.2219 25.1706 69.5854 25.2539L69.7407 25.2939C70.5703 25.5273 71.2731 26.0806 71.6948 26.832C72.1164 27.5834 72.2227 28.4713 71.9897 29.3008L54.27 92.4531C54.1548 92.8641 53.9595 93.2484 53.6958 93.584C53.4321 93.9195 53.1049 94.2001 52.7329 94.4092C52.3608 94.6183 51.9507 94.7519 51.5269 94.8027C51.103 94.8535 50.6732 94.8203 50.2622 94.7051C49.8514 94.5898 49.4669 94.3955 49.1313 94.1318C48.7957 93.8681 48.5153 93.5401 48.3062 93.168C48.0971 92.796 47.9634 92.3865 47.9126 91.9629C47.8618 91.5391 47.895 91.1092 48.0103 90.6982L65.73 27.5459C65.8451 27.1346 66.0404 26.7499 66.3042 26.4141C66.5681 26.0782 66.8957 25.7971 67.2681 25.5879C67.6405 25.3787 68.0509 25.2449 68.4751 25.1943ZM37.9995 39.7783C38.8613 39.7783 39.6879 40.1212 40.2974 40.7305V40.7295C40.9066 41.3389 41.2494 42.1656 41.2495 43.0273C41.2495 43.8891 40.9066 44.7157 40.2974 45.3252L26.1577 59.4697L25.6274 60L40.2974 74.6699C40.5993 74.9717 40.8389 75.3303 41.0024 75.7246C41.1659 76.119 41.2503 76.5418 41.2505 76.9688C41.2506 77.3955 41.1666 77.8185 41.0034 78.2129C40.8402 78.6072 40.601 78.9657 40.2993 79.2676C39.9976 79.5695 39.6389 79.8092 39.2446 79.9727C38.8505 80.136 38.4281 80.2205 38.0015 80.2207C37.5747 80.2209 37.1517 80.1368 36.7573 79.9736C36.3631 79.8105 36.0045 79.5711 35.7026 79.2695L18.73 62.2969C18.1211 61.6875 17.7789 60.8614 17.7788 60C17.7788 59.1384 18.1209 58.3116 18.73 57.7021L35.7026 40.7305C36.312 40.1213 37.1379 39.7784 37.9995 39.7783ZM81.979 39.7285C82.4105 39.7323 82.8374 39.8219 83.2339 39.9922C83.6303 40.1625 83.9888 40.4104 84.2886 40.7207L101.27 57.7021C101.879 58.3116 102.221 59.1384 102.221 60C102.221 60.8614 101.879 61.6876 101.27 62.2969L84.2974 79.2695C83.6875 79.8787 82.8605 80.221 81.9985 80.2207C81.1365 80.2203 80.31 79.8773 79.7007 79.2676C79.0913 78.6578 78.7493 77.8308 78.7495 76.9688C78.7498 76.1066 79.0919 75.2793 79.7017 74.6699H79.7026L94.3726 60L93.8423 59.4697L79.7026 45.3252L79.6929 45.3164L79.5796 45.2012C79.3219 44.9262 79.1134 44.6077 78.9644 44.2607C78.7942 43.8644 78.7045 43.4381 78.7007 43.0068C78.6969 42.5754 78.7795 42.1474 78.9429 41.748C79.1063 41.3487 79.3477 40.9858 79.6528 40.6807C79.958 40.3755 80.3208 40.1341 80.7202 39.9707C81.1196 39.8073 81.5475 39.7248 81.979 39.7285Z" fill="#FB7A01" stroke="#FCEDDE" stroke-width="1.5"/>
</svg>
