<svg width="32" height="32" viewBox="0 0 32 32" fill="none" xmlns="http://www.w3.org/2000/svg">
<path d="M8.88867 0.25H23.1113C25.4024 0.250058 27.5997 1.16022 29.2197 2.78027C30.8398 4.40033 31.7499 6.59757 31.75 8.88867V23.1113C31.7499 25.4024 30.8398 27.5997 29.2197 29.2197C27.5997 30.8398 25.4024 31.7499 23.1113 31.75H8.88867C6.59757 31.7499 4.40033 30.8398 2.78027 29.2197C1.16022 27.5997 0.250058 25.4024 0.25 23.1113V8.88867C0.250058 6.59757 1.16022 4.40033 2.78027 2.78027C4.40033 1.16022 6.59757 0.250058 8.88867 0.25ZM8.88867 3.30566C7.40796 3.30572 5.98746 3.8934 4.94043 4.94043C3.8934 5.98746 3.30572 7.40796 3.30566 8.88867V23.1113C3.30572 24.592 3.8934 26.0125 4.94043 27.0596C5.98746 28.1066 7.40796 28.6943 8.88867 28.6943H23.1113C24.592 28.6943 26.0125 28.1066 27.0596 27.0596C28.1066 26.0125 28.6943 24.592 28.6943 23.1113V8.88867C28.6943 7.40796 28.1066 5.98746 27.0596 4.94043C26.0125 3.8934 24.592 3.30572 23.1113 3.30566H8.88867ZM16 9.13867C17.8197 9.13867 19.5649 9.86173 20.8516 11.1484C22.1383 12.4351 22.8613 14.1803 22.8613 16C22.8613 17.8197 22.1383 19.5649 20.8516 20.8516C19.5649 22.1383 17.8197 22.8613 16 22.8613C14.1803 22.8613 12.4351 22.1383 11.1484 20.8516C9.86173 19.5649 9.13867 17.8197 9.13867 16C9.13867 14.1803 9.86173 12.4351 11.1484 11.1484C12.4351 9.86173 14.1803 9.13867 16 9.13867ZM16 12.1943C14.9907 12.1943 14.0223 12.5949 13.3086 13.3086C12.5949 14.0223 12.1943 14.9907 12.1943 16C12.1943 17.0093 12.5949 17.9777 13.3086 18.6914C14.0223 19.4051 14.9907 19.8057 16 19.8057C17.0093 19.8057 17.9777 19.4051 18.6914 18.6914C19.4051 17.9777 19.8057 17.0093 19.8057 16C19.8057 14.9907 19.4051 14.0223 18.6914 13.3086C17.9777 12.5949 17.0093 12.1943 16 12.1943ZM24 6.47266C24.4052 6.47266 24.7936 6.63341 25.0801 6.91992C25.3666 7.20644 25.5273 7.59481 25.5273 8C25.5273 8.40519 25.3666 8.79356 25.0801 9.08008C24.7936 9.36659 24.4052 9.52734 24 9.52734C23.5948 9.52734 23.2064 9.36659 22.9199 9.08008C22.6334 8.79356 22.4727 8.40519 22.4727 8C22.4727 7.59481 22.6334 7.20644 22.9199 6.91992C23.2064 6.63341 23.5948 6.47266 24 6.47266Z" fill="#157647" stroke="white" stroke-width="0.5"/>
</svg>
