<svg width="32" height="32" viewBox="0 0 32 32" fill="none" xmlns="http://www.w3.org/2000/svg">
<path d="M5.33301 0.25H26.667C28.0151 0.250086 29.3075 0.786025 30.2607 1.73926C31.214 2.69249 31.7499 3.98494 31.75 5.33301V26.667C31.7499 28.0151 31.214 29.3075 30.2607 30.2607C29.3075 31.214 28.0151 31.7499 26.667 31.75H5.33301C3.98494 31.7499 2.69249 31.214 1.73926 30.2607C0.786025 29.3075 0.250086 28.0151 0.25 26.667V5.33301L0.255859 5.08105C0.318233 3.82472 0.845575 2.63294 1.73926 1.73926C2.63294 0.845575 3.82472 0.318233 5.08105 0.255859L5.33301 0.25ZM5.33301 3.30566C4.79532 3.30575 4.27962 3.51921 3.89941 3.89941C3.51921 4.27962 3.30575 4.79532 3.30566 5.33301V26.667C3.30575 27.2047 3.51921 27.7204 3.89941 28.1006C4.27962 28.4808 4.79533 28.6942 5.33301 28.6943H26.667C27.2047 28.6942 27.7204 28.4808 28.1006 28.1006C28.4808 27.7204 28.6942 27.2047 28.6943 26.667V5.33301C28.6942 4.79533 28.4808 4.27962 28.1006 3.89941C27.7204 3.51921 27.2047 3.30575 26.667 3.30566H5.33301ZM8.88867 12.6943C9.26287 12.6944 9.62466 12.8314 9.9043 13.0801C10.1813 13.3264 10.3584 13.6656 10.4043 14.0332L10.417 14.2373V23.1113C10.4164 23.5005 10.2672 23.8752 10 24.1582C9.73271 24.4413 9.3672 24.6119 8.97852 24.6348C8.58978 24.6576 8.20681 24.5302 7.9082 24.2803C7.64697 24.0615 7.46705 23.763 7.39551 23.4326L7.37207 23.29L7.36133 23.1113V14.2227C7.36133 13.8175 7.52208 13.4281 7.80859 13.1416C8.09504 12.8552 8.48363 12.6944 8.88867 12.6943ZM14.2227 10.917C14.5803 10.917 14.9265 11.0423 15.2012 11.2715C15.4759 11.5007 15.6615 11.8189 15.7256 12.1709L15.7891 12.5205L16.0967 12.3428C16.3585 12.191 16.6271 12.0505 16.9014 11.9229L17.1777 11.7998C18.2505 11.3415 19.8236 11.0787 21.2803 11.4443L21.5693 11.5254C22.3709 11.7797 23.1668 12.2509 23.7549 13.0479V13.0488C24.2798 13.7572 24.5687 14.6245 24.6279 15.6133V15.6143L24.6387 16.0068V23.1113C24.6381 23.5006 24.4889 23.8752 24.2217 24.1582C23.9544 24.4412 23.5888 24.612 23.2002 24.6348C22.8116 24.6575 22.4293 24.5301 22.1309 24.2803C21.8349 24.0325 21.6428 23.6825 21.5947 23.2998L21.583 23.0957V16C21.583 15.3695 21.4297 15.0412 21.3008 14.8652L21.2939 14.8564L21.2285 14.7822C21.0724 14.6173 20.873 14.4988 20.6523 14.4404H20.6533C20.0512 14.2501 19.2461 14.3155 18.6299 14.5156L18.3779 14.6094C17.4564 15.0038 16.6162 15.6201 16.042 16.1924L16.0361 16.1992L15.8174 16.4336L15.75 16.5059V23.1113C15.7494 23.5006 15.6002 23.8752 15.333 24.1582C15.0657 24.4412 14.7002 24.612 14.3115 24.6348C13.9229 24.6575 13.5398 24.5301 13.2412 24.2803C12.9801 24.0616 12.801 23.7628 12.7295 23.4326L12.7051 23.29L12.6943 23.0957V12.4443C12.6944 12.0393 12.8552 11.6507 13.1416 11.3643C13.4281 11.0777 13.8175 10.917 14.2227 10.917ZM8.88867 7.36133C9.29376 7.36133 9.68226 7.52222 9.96875 7.80859C10.2552 8.09506 10.4169 8.48356 10.417 8.88867C10.417 9.29386 10.2553 9.68224 9.96875 9.96875C9.68224 10.2553 9.29386 10.417 8.88867 10.417C8.48356 10.4169 8.09506 10.2552 7.80859 9.96875C7.52222 9.68226 7.36133 9.29376 7.36133 8.88867C7.36139 8.48356 7.52213 8.09506 7.80859 7.80859C8.09506 7.52213 8.48356 7.36139 8.88867 7.36133Z" fill="#157647" stroke="white" stroke-width="0.5"/>
</svg>
