<svg width="32" height="32" viewBox="0 0 32 32" fill="none" xmlns="http://www.w3.org/2000/svg">
<path d="M16 0.25C24.6987 0.25 31.75 7.30128 31.75 16C31.75 24.6987 24.6987 31.75 16 31.75L15.498 31.7432C12.9924 31.6667 10.5389 30.9899 8.34473 29.7676H8.3457L7.85742 29.4834L7.76367 29.4287L7.66113 29.459L2.80957 30.8867C2.58646 30.9525 2.34996 30.9603 2.12305 30.9092C1.89621 30.8581 1.68603 30.7497 1.5127 30.5947C1.3393 30.4396 1.20785 30.2423 1.13184 30.0225C1.05632 29.8039 1.03747 29.5696 1.07715 29.3418L1.11719 29.1777L1.11621 29.1768L2.54102 24.3389L2.57129 24.2334L2.51465 24.1396C1.02946 21.6849 0.246184 18.8691 0.25 16L0.254883 15.5938C0.470341 7.08279 7.4371 0.250003 16 0.25ZM16 2.9502C13.6635 2.94978 11.3699 3.57686 9.3584 4.76562C7.34688 5.9544 5.69098 7.66098 4.56445 9.70801C3.43797 11.755 2.88206 14.067 2.9541 16.4023C3.02619 18.7378 3.72397 21.0117 4.97461 22.9854C5.2584 23.4326 5.37929 23.9817 5.28516 24.5254L5.22852 24.7646L4.52344 27.166L4.39453 27.6055L4.83398 27.4766L7.23535 26.7715V26.7705C7.77784 26.6101 8.34037 26.6755 8.81641 26.9131L9.01465 27.0254C10.7247 28.1082 12.664 28.7788 14.6777 28.9834C16.6912 29.1879 18.7245 28.9207 20.6172 28.2041C22.51 27.4874 24.2109 26.3405 25.584 24.8535C26.9571 23.3665 27.9653 21.5796 28.5293 19.6357C29.0932 17.6919 29.198 15.6433 28.834 13.6523C28.4699 11.6614 27.6469 9.78253 26.4316 8.16406C25.2164 6.54564 23.6414 5.23206 21.8311 4.32715C20.0205 3.42221 18.0241 2.95077 16 2.9502ZM11.8994 8.45801C12.0478 8.47434 12.1896 8.5287 12.3105 8.61621C12.9874 9.11044 13.5477 9.75735 14.043 10.4238L14.251 10.71L14.7705 11.4629V11.4639L15.0156 11.8242C15.1259 11.9854 15.1803 12.179 15.1699 12.374C15.1596 12.5662 15.0864 12.749 14.9629 12.8965L14.8633 12.998L13.4033 14.082C13.2833 14.169 13.1993 14.297 13.166 14.4414C13.1328 14.5859 13.1528 14.7375 13.2227 14.8682L13.2246 14.8711C13.5242 15.4132 14.0257 16.1926 14.6182 16.8506L14.8779 17.124C15.5829 17.8274 16.5528 18.4733 17.2119 18.8516L17.2129 18.8525C17.4531 18.9889 17.7388 18.9427 17.9287 18.7715L17.9414 18.7598L17.9521 18.7471L18.0137 18.6748L18.0234 18.6631L18.0312 18.6504L18.9844 17.1992C19.1221 17.016 19.3255 16.8932 19.5518 16.8564C19.7775 16.8198 20.0089 16.8713 20.1973 17.001V17.002L21.0664 17.6074C21.924 18.2189 22.7299 18.8639 23.3643 19.6738V19.6748C23.459 19.7969 23.5196 19.9423 23.5391 20.0957C23.5585 20.2491 23.5359 20.405 23.4746 20.5469V20.5479C22.8732 21.9512 21.3532 23.1258 19.8125 23.0723L19.5596 23.0576H19.5586L19.2617 23.0293H19.2607C19.2086 23.0231 19.1565 23.0161 19.1045 23.0088L18.7266 22.9453C17.3816 22.6913 15.259 21.9564 13.0098 19.8779L12.5576 19.4443C10.1424 17.0276 9.32479 14.7048 9.05469 13.2705L8.99414 12.9062L8.9541 12.5732L8.93457 12.3047C8.93226 12.2679 8.92934 12.2312 8.92773 12.1943H8.92871C8.87247 10.6492 10.055 9.12673 11.4619 8.52441L11.4629 8.52344C11.6001 8.46411 11.7508 8.44171 11.8994 8.45801Z" fill="#157647" stroke="white" stroke-width="0.5"/>
</svg>
