<svg width="143" height="37" viewBox="0 0 143 37" fill="none" xmlns="http://www.w3.org/2000/svg">
<mask id="mask0_3097_1926" style="mask-type:luminance" maskUnits="userSpaceOnUse" x="0" y="0" width="143" height="37">
<path d="M143 0L0 0L0 36.3H143V0Z" fill="white"/>
</mask>
<g mask="url(#mask0_3097_1926)">
<path d="M29.9175 0.156091C30.0094 0.0837884 30.1 -0.0172961 30.2365 0.00516697C32.1487 0.00376227 34.0608 0.00657056 35.9731 0.00376335C36.213 0.0142926 36.5057 -0.0573087 36.6716 0.151178C36.6641 3.56628 36.6664 6.98209 36.6708 10.3972C39.5705 6.97016 42.4785 3.54943 45.3773 0.121694C45.4324 0.0472848 45.5161 -0.0123824 45.6217 0.00516697C48.1464 0.00165687 50.6712 0.0100807 53.1951 0.000955069C53.2479 0.113271 53.3762 0.250156 53.2419 0.356856C49.4062 4.90354 45.5803 9.45654 41.7437 14.0025C45.9778 19.711 50.2292 25.4089 54.4677 31.1146C54.4216 31.1925 54.3764 31.2704 54.3319 31.3491C51.7899 31.3413 49.2478 31.356 46.7049 31.342C43.3677 26.8584 40.0133 22.3862 36.6702 17.907C36.6655 22.3364 36.6671 26.7666 36.6694 31.196C36.6165 31.2466 36.5638 31.297 36.5118 31.3476C34.3687 31.3469 32.2264 31.3483 30.0834 31.3469C30.029 31.295 29.974 31.2437 29.9197 31.1925C29.9197 20.8468 29.925 10.5011 29.9175 0.156091Z" fill="#535969"/>
<path d="M116.354 8.05596C117.867 7.31535 119.578 6.9433 121.286 6.94822C122.971 6.93699 124.665 7.262 126.183 7.95276C128.268 8.91095 130.005 10.4799 131.202 12.3282C132.716 14.6875 133.215 17.5095 133.029 20.2246C132.883 22.5566 132.059 24.8689 130.553 26.7481C128.962 28.7361 126.745 30.3619 124.147 31.0154C121.444 31.6907 118.427 31.4702 115.981 30.1555C115.14 29.7175 114.391 29.151 113.66 28.5725C113.664 31.1242 113.663 33.6766 113.658 36.229C111.504 36.229 109.353 36.2297 107.2 36.229C107.201 26.7158 107.198 17.2027 107.201 7.68953C107.252 7.63899 107.304 7.58844 107.358 7.53856C109.361 7.53506 111.367 7.53856 113.372 7.53644C113.491 7.51401 113.576 7.59334 113.659 7.66002C113.668 8.39011 113.661 9.1194 113.66 9.84949C114.49 9.16856 115.365 8.52626 116.354 8.05596ZM119.593 12.571C119.04 12.604 118.49 12.6819 117.961 12.8336C116.721 13.1761 115.627 13.9126 114.833 14.8567C114.007 15.8289 113.557 17.0441 113.44 18.2711C113.309 19.6525 113.468 21.0873 114.1 22.3558C114.697 23.543 115.715 24.5481 116.964 25.1574C118.234 25.7696 119.722 25.9268 121.126 25.7281C122.395 25.5499 123.58 24.9629 124.483 24.1185C125.49 23.2088 126.167 22 126.418 20.7167C126.679 19.3718 126.624 17.9594 126.161 16.6578C125.67 15.2926 124.643 14.1013 123.319 13.3594C122.206 12.7367 120.88 12.5064 119.593 12.571Z" fill="#535969"/>
<path d="M62.2131 7.6623C64.1283 7.20037 66.143 7.16317 68.0967 7.41515C70.2624 7.69809 72.3632 8.48713 74.074 9.76398C75.8302 11.0585 77.2008 12.8049 77.9656 14.7662C78.2334 15.4303 78.4189 16.1197 78.5793 16.8118C78.8627 15.5644 79.2865 14.3359 79.9544 13.2177C81.2329 11.045 83.2924 9.27046 85.7372 8.2835C87.0565 7.74791 88.4771 7.44114 89.9086 7.32391C92.6274 7.08875 95.4709 7.47065 97.8545 8.76365C99.9602 9.89808 101.702 11.6151 102.807 13.6319C103.498 14.8976 103.916 16.2846 104.094 17.6928C104.417 20.3048 104.052 23.0531 102.67 25.3758C101.378 27.5372 99.3426 29.3266 96.9064 30.3297C94.4812 31.3336 91.757 31.5441 89.1388 31.3006C87.5345 31.1475 85.9436 30.7712 84.4971 30.098C82.6739 29.2473 81.1364 27.9184 79.974 26.3677C80.1082 26.2294 80.3421 26.1916 80.5172 26.0976C82.0664 25.4165 83.6204 24.7462 85.1673 24.0604C85.9703 24.7898 86.9082 25.4011 87.9536 25.7887C89.444 26.3495 91.1032 26.4632 92.6823 26.226C94.0096 26.0301 95.2872 25.4784 96.2495 24.5981C97.331 23.6427 97.9942 22.3209 98.2045 20.9548C85.1211 20.9521 72.0382 20.9534 58.9551 20.9542C59.1678 22.2549 59.7675 23.5198 60.7678 24.4634C61.7137 25.3822 62.99 25.9789 64.3312 26.2021C65.8896 26.4597 67.5302 26.3741 69.0193 25.8582C70.1425 25.4742 71.1443 24.8305 72.0019 24.0604C73.7338 24.8305 75.474 25.583 77.212 26.3419C76.4268 27.3842 75.4869 28.3312 74.3924 29.0978C72.5541 30.4083 70.2776 31.0969 67.9896 31.3041C65.2982 31.5505 62.4914 31.3132 60.0218 30.2294C57.641 29.1869 55.6587 27.3954 54.4186 25.2411C53.0239 22.8214 52.7153 19.9651 53.1295 17.2751C53.4711 15.0527 54.4978 12.9193 56.1 11.2367C57.6984 9.51828 59.8377 8.22244 62.2131 7.6623ZM61.2792 13.6669C60.3483 14.4139 59.7404 15.4353 59.2244 16.4566C63.6915 16.4587 68.1594 16.458 72.6264 16.4573C72.1852 15.0365 71.1103 13.8263 69.7464 13.0837C68.5131 12.3879 67.0423 12.1107 65.6113 12.1816C64.0475 12.2357 62.4951 12.7445 61.2792 13.6669ZM86.6217 13.5988C85.6304 14.3199 84.8966 15.3342 84.5394 16.4558C89.0069 16.458 93.4726 16.4609 97.9393 16.4545C97.3365 15.2632 96.5964 14.0453 95.3751 13.3167C93.9978 12.4497 92.3001 12.091 90.6511 12.1851C89.1929 12.2497 87.7558 12.7396 86.6217 13.5988Z" fill="#535969"/>
<path d="M8.80988 7.84181C11.1324 7.28934 13.6602 7.38409 15.8825 8.24893C17.1777 8.74873 18.3499 9.50125 19.3613 10.4019C19.3788 9.72168 19.3583 9.0422 19.3674 8.36192C19.3546 8.23842 19.4549 8.09029 19.5983 8.09306C21.6364 8.08606 23.6745 8.09665 25.7128 8.08818C25.7852 8.16823 25.89 8.24331 25.8667 8.36265C25.8689 15.9714 25.8652 23.5807 25.8689 31.1902C25.8138 31.2415 25.7596 31.2941 25.706 31.3466C23.6436 31.3502 21.5813 31.3425 19.5191 31.3502C19.4647 31.2787 19.3674 31.2197 19.3728 31.1221C19.3538 30.4573 19.378 29.7919 19.3636 29.1263C18.5022 29.8529 17.5578 30.5036 16.5131 30.9837C15.0919 31.643 13.495 31.9504 11.9102 31.9357C10.3917 31.9448 8.86796 31.664 7.4785 31.0925C6.14335 30.55 4.9402 29.7476 3.90829 28.7957C2.63045 27.6312 1.60231 26.2258 0.94756 24.6745C-0.00666437 22.4309 -0.174878 19.9523 0.154006 17.5754C0.470069 15.3045 1.43636 13.0932 3.04232 11.3453C4.5389 9.68727 6.54087 8.38515 8.80988 7.84181ZM11.9471 13.1908C10.9356 13.3291 9.95945 13.7019 9.15231 14.2873C7.92881 15.1606 7.05004 16.4382 6.71438 17.8386C6.39907 19.1534 6.41641 20.5441 6.79358 21.8469C7.24995 23.4138 8.39274 24.7938 9.89839 25.613C11.3135 26.3788 13.0439 26.5235 14.6265 26.2061C15.9065 25.9514 17.0706 25.2817 17.932 24.3698C18.8824 23.3877 19.4338 22.1094 19.5967 20.8038C19.7529 19.5016 19.6692 18.1482 19.1547 16.9176C18.6243 15.6414 17.6038 14.5499 16.3275 13.8738C15.0089 13.181 13.4331 12.9971 11.9471 13.1908Z" fill="#535969"/>
<path d="M138.892 26.3879C139.539 26.2917 140.214 26.3345 140.835 26.5347C141.694 26.8202 142.424 27.4556 142.749 28.2537C143.161 29.2997 142.958 30.58 142.096 31.3838C141.112 32.3652 139.466 32.5913 138.152 32.1124C137.332 31.7994 136.633 31.1817 136.318 30.4039C135.93 29.4042 136.124 28.1969 136.91 27.405C137.42 26.8702 138.129 26.4974 138.892 26.3879Z" fill="#D3585E"/>
</g>
</svg>
