<svg width="90" height="56" viewBox="0 0 90 56" fill="none" xmlns="http://www.w3.org/2000/svg">
<path d="M70.4382 5.29168L65.589 0.329078C65.1219 -0.143782 64.3503 -0.104777 63.9555 0.431448C59.2155 6.78337 51.36 10.9367 42.4714 10.9367C33.5784 10.9367 25.7229 6.77846 20.9829 0.431448C20.5835 -0.104777 19.8112 -0.143782 19.3494 0.329078L14.5001 5.29168C13.8378 5.9693 13.776 7.0515 14.3713 7.78759C21.0454 16.0749 31.144 21.3542 42.4526 21.364H42.4714H42.491C53.7997 21.3592 63.9028 16.0749 70.5716 7.78759C71.1676 7.0515 71.1005 5.96439 70.4435 5.29168" fill="#ED1944"/>
<path d="M84.8144 36.0166H79.9184C79.7188 36.011 79.5312 36.0902 79.3925 36.2318L78.0981 37.5566C77.9594 37.6981 77.8818 37.8963 77.8818 38.0944V38.8701C77.8818 39.2437 78.181 39.5495 78.5464 39.5495H85.5061C86.0757 39.5495 86.5406 40.0194 86.5406 40.6025V45.5565C86.5406 46.1396 86.0757 46.6152 85.5061 46.6152H82.8501C82.8449 46.6152 82.8388 46.6152 82.8336 46.6152H78.5735C78.1975 46.6152 77.8879 46.9266 77.8879 47.3172V49.446C77.8879 49.831 78.1923 50.1481 78.5735 50.1481H84.8257C87.6858 50.1481 89.9982 47.7758 89.9982 44.8544V41.3102C89.9982 38.3832 87.6798 36.0166 84.8257 36.0166" fill="#ED1944"/>
<path d="M3.47096 44.431C3.57055 44.7141 3.8361 44.9009 4.12931 44.9009H6.27587C6.75719 44.9009 7.08913 44.414 6.92316 43.9555L3.46543 34.6987C3.36585 34.4156 3.10582 34.2288 2.81261 34.2288H0.682645C0.212396 34.2288 -0.119546 34.71 0.0408924 35.1629L3.46543 44.4254L3.47096 44.431Z" fill="#ED1944"/>
<path d="M63.3604 51.9608H61.1972C60.8377 51.9608 60.5444 52.2609 60.5444 52.6289V54.8426C60.5444 55.2106 60.8377 55.5107 61.1972 55.5107H63.3604C63.72 55.5107 64.0133 55.2106 64.0133 54.8426V52.6289C64.0133 52.2609 63.72 51.9608 63.3604 51.9608Z" fill="#ED1944"/>
<path d="M75.4536 51.9608H69.8826C69.5064 51.9608 69.2021 52.2722 69.2021 52.6572V54.8143C69.2021 55.1993 69.5064 55.5107 69.8826 55.5107H75.4536C75.8296 55.5107 76.1339 55.1993 76.1339 54.8143V52.6572C76.1339 52.2722 75.8296 51.9608 75.4536 51.9608Z" fill="#ED1944"/>
<path d="M31.1636 36.0078H29.7362L34.4775 31.3936C34.7208 31.1275 34.5384 30.6915 34.1787 30.6915H30.6712C30.4001 30.6915 30.1401 30.7991 29.941 30.9973L22.6437 38.3574C22.2122 38.799 22.5165 39.552 23.1251 39.552H31.1913C32.1207 39.552 32.8786 40.3729 32.8786 41.3241V46.6404L20.0269 46.629C19.4627 46.629 19.0034 46.1591 19.0034 45.5816V34.9264C19.0034 34.5414 18.6992 34.2301 18.323 34.2301H16.2648C15.8886 34.2301 15.5845 34.5414 15.5845 34.9264L15.5955 45.1513C15.7283 47.9255 17.9633 50.1279 20.7074 50.1279L35.6172 50.1392C35.9934 50.1392 36.2976 49.8279 36.2976 49.4429L36.2754 41.1599C36.1814 38.3517 33.9354 36.0078 31.1636 36.0078Z" fill="#ED1944"/>
<path d="M13.1872 34.2363H11.1292C10.753 34.2363 10.4487 34.5477 10.4487 34.9327V45.6445C10.4487 46.222 9.98952 46.6919 9.42518 46.6919L2.07822 46.6806C1.87906 46.6806 1.69095 46.7598 1.55264 46.9014L0.235942 48.1866C0.0976325 48.3281 0.0146484 48.5263 0.0146484 48.7244L0.0146484 49.5001C0.0146484 49.8737 0.313395 50.1795 0.67853 50.1795H8.74474C11.4888 50.1795 13.7183 47.9714 13.8566 45.2029L13.8677 34.9214C13.8677 34.5364 13.5634 34.225 13.1872 34.225" fill="#ED1944"/>
<path d="M76.1173 45.1203L76.1286 40.2513C76.1286 39.8606 75.819 39.5492 75.4422 39.5492H73.3568C72.9751 39.5492 72.6709 39.8663 72.6709 40.2513V45.5619C72.6709 46.145 72.2061 46.6206 71.6363 46.6206H64.0127V41.31C64.0127 37.8904 61.6171 36.0107 58.8122 36.0107H53.9216C53.7224 36.0107 53.5343 36.09 53.396 36.2315L52.1014 37.5564C51.9631 37.6979 51.8856 37.896 51.8856 38.0942V38.8698C51.8856 39.2435 52.1844 39.5492 52.5495 39.5492H59.5093C60.0792 39.5436 60.5438 40.0192 60.5438 40.6023L60.5605 46.615L49.1139 46.6433C48.7377 46.6433 48.428 46.9603 48.428 47.3453V49.4854C48.428 49.8761 48.7377 50.1875 49.1139 50.1875H51.8912V50.9065C51.8912 51.4896 51.4265 51.9652 50.8566 51.9652H42.4364C41.9219 51.9652 41.5014 51.5349 41.5014 51.0027V43.8011C41.5014 43.4161 41.1916 43.0991 40.8098 43.0991H38.7241C38.3424 43.0991 38.0381 43.4105 38.0381 43.8011L38.0492 50.2044C38.0381 53.7373 39.7698 55.5094 43.233 55.5094H50.237C53.3075 55.5094 55.3545 53.4995 55.3545 50.1931H63.3322C63.7084 50.1931 64.0182 49.8761 64.0182 49.4911V48.3927L64.0293 48.404L65.5451 49.9893C65.6724 50.1252 65.8439 50.1988 66.0264 50.1988H70.9503C73.722 50.1988 75.9847 47.9341 76.1234 45.1316" fill="#ED1944"/>
</svg>
