<svg width="166" height="25" viewBox="0 0 166 25" fill="none" xmlns="http://www.w3.org/2000/svg">
<path d="M84.8144 5.32517H79.9184C79.7188 5.31951 79.5312 5.39878 79.3925 5.54032L78.0981 6.86512C77.9594 7.00666 77.8818 7.20481 77.8818 7.40296V8.17861C77.8818 8.55228 78.181 8.858 78.5464 8.858H85.5061C86.0757 8.858 86.5406 9.32792 86.5406 9.91107V14.865C86.5406 15.4481 86.0757 15.9237 85.5061 15.9237H82.8501C82.8449 15.9237 82.8388 15.9237 82.8336 15.9237H78.5735C78.1975 15.9237 77.8879 16.2351 77.8879 16.6258V18.7545C77.8879 19.1395 78.1923 19.4566 78.5735 19.4566H84.8257C87.6858 19.4566 89.9982 17.0844 89.9982 14.163V10.6188C89.9982 7.69171 87.6798 5.32517 84.8257 5.32517" fill="#ED1944"/>
<path d="M3.47096 13.7396C3.57055 14.0226 3.8361 14.2095 4.12931 14.2095H6.27587C6.75719 14.2095 7.08913 13.7226 6.92316 13.264L3.46543 4.00721C3.36585 3.72413 3.10582 3.53729 2.81261 3.53729H0.682645C0.212396 3.53729 -0.119546 4.01853 0.0408924 4.47146L3.46543 13.7339L3.47096 13.7396Z" fill="#ED1944"/>
<path d="M63.3604 21.2693H61.1972C60.8377 21.2693 60.5444 21.5694 60.5444 21.9374V24.1511C60.5444 24.5191 60.8377 24.8191 61.1972 24.8191H63.3604C63.72 24.8191 64.0133 24.5191 64.0133 24.1511V21.9374C64.0133 21.5694 63.72 21.2693 63.3604 21.2693Z" fill="#ED1944"/>
<path d="M75.4536 21.2693H69.8826C69.5064 21.2693 69.2021 21.5807 69.2021 21.9657V24.1227C69.2021 24.5077 69.5064 24.8191 69.8826 24.8191H75.4536C75.8296 24.8191 76.1339 24.5077 76.1339 24.1227V21.9657C76.1339 21.5807 75.8296 21.2693 75.4536 21.2693Z" fill="#ED1944"/>
<path d="M31.1636 5.31628H29.7362L34.4775 0.702043C34.7208 0.435946 34.5384 0 34.1787 0L30.6712 0C30.4001 0 30.1401 0.107572 29.941 0.305729L22.6437 7.66585C22.2122 8.10746 22.5165 8.86046 23.1251 8.86046H31.1913C32.1207 8.86046 32.8786 9.6814 32.8786 10.6326V15.9488L20.0269 15.9375C19.4627 15.9375 19.0034 15.4676 19.0034 14.8901V4.2349C19.0034 3.84991 18.6992 3.53852 18.323 3.53852H16.2648C15.8886 3.53852 15.5845 3.84991 15.5845 4.2349L15.5955 14.4598C15.7283 17.234 17.9633 19.4364 20.7074 19.4364L35.6172 19.4477C35.9934 19.4477 36.2976 19.1363 36.2976 18.7513L36.2754 10.4684C36.1814 7.66019 33.9354 5.31628 31.1636 5.31628Z" fill="#ED1944"/>
<path d="M13.1872 3.54483H11.1292C10.753 3.54483 10.4487 3.85622 10.4487 4.24121V14.953C10.4487 15.5305 9.98952 16.0004 9.42518 16.0004L2.07822 15.9891C1.87906 15.9891 1.69095 16.0684 1.55264 16.2099L0.235942 17.4951C0.0976325 17.6367 0.0146484 17.8348 0.0146484 18.033L0.0146484 18.8086C0.0146484 19.1823 0.313395 19.488 0.67853 19.488H8.74474C11.4888 19.488 13.7183 17.28 13.8566 14.5114L13.8677 4.22989C13.8677 3.8449 13.5634 3.53351 13.1872 3.53351" fill="#ED1944"/>
<path d="M76.1173 14.4288L76.1286 9.55976C76.1286 9.1691 75.819 8.85771 75.4422 8.85771H73.3568C72.9751 8.85771 72.6709 9.17477 72.6709 9.55976V14.8704C72.6709 15.4535 72.2061 15.9291 71.6363 15.9291H64.0127V10.6185C64.0127 7.19885 61.6171 5.31921 58.8122 5.31921H53.9216C53.7224 5.31921 53.5343 5.39848 53.396 5.54002L52.1014 6.86484C51.9631 7.00638 51.8856 7.20452 51.8856 7.40267V8.17832C51.8856 8.55199 52.1844 8.85771 52.5495 8.85771H59.5093C60.0792 8.85205 60.5438 9.32763 60.5438 9.91078L60.5605 15.9234L49.1139 15.9517C48.7377 15.9517 48.428 16.2688 48.428 16.6538V18.7939C48.428 19.1845 48.7377 19.4959 49.1139 19.4959H51.8912V20.215C51.8912 20.7981 51.4265 21.2737 50.8566 21.2737H42.4364C41.9219 21.2737 41.5014 20.8434 41.5014 20.3112V13.1096C41.5014 12.7246 41.1916 12.4076 40.8098 12.4076H38.7241C38.3424 12.4076 38.0381 12.7189 38.0381 13.1096L38.0492 19.5129C38.0381 23.0458 39.7698 24.8179 43.233 24.8179H50.237C53.3075 24.8179 55.3545 22.808 55.3545 19.5016H63.3322C63.7084 19.5016 64.0182 19.1845 64.0182 18.7995V17.7012L64.0293 17.7125L65.5451 19.2978C65.6724 19.4336 65.8439 19.5072 66.0264 19.5072H70.9503C73.722 19.5072 75.9847 17.2426 76.1234 14.4401" fill="#ED1944"/>
<path d="M164.475 8.74675L159.626 3.78416C159.158 3.3113 158.387 3.3503 157.992 3.88653C153.252 10.2384 145.397 14.3918 136.508 14.3918C127.615 14.3918 119.759 10.2335 115.019 3.88653C114.62 3.3503 113.848 3.3113 113.386 3.78416L108.537 8.74675C107.874 9.42438 107.813 10.5066 108.408 11.2427C115.082 19.5299 125.181 24.8093 136.489 24.8191H136.508H136.528C147.836 24.8143 157.939 19.5299 164.608 11.2427C165.204 10.5066 165.137 9.41947 164.48 8.74675" fill="#ED1944"/>
</svg>
