<svg width="143" height="35" viewBox="0 0 143 35" fill="none" xmlns="http://www.w3.org/2000/svg">
<mask id="mask0_3097_1892" style="mask-type:luminance" maskUnits="userSpaceOnUse" x="0" y="0" width="144" height="35">
<path d="M143 0H0V34.9556H143V0Z" fill="white"/>
</mask>
<g mask="url(#mask0_3097_1892)">
<path d="M121.858 0.0763004C125.913 -0.270782 130.082 0.572938 133.572 2.47107C136.828 4.22341 139.49 6.85993 141.121 9.95083C142.943 13.3698 143.459 17.3327 142.6 21.0451C141.848 24.357 139.986 27.4506 137.335 29.8369C134.69 32.2336 131.259 33.9153 127.586 34.5926C123.48 35.3649 119.096 34.8983 115.315 33.2551C111.683 31.6946 108.622 29.0826 106.689 25.8996C105.278 23.5933 104.462 20.9925 104.323 18.3606C104.135 15.1354 104.963 11.8658 106.699 9.04119C108.994 5.26466 112.887 2.30929 117.407 0.931305C118.847 0.489224 120.343 0.201401 121.858 0.0763004ZM111.858 5.8215C115.472 9.04023 119.083 12.2627 122.719 15.459C122.725 10.8744 122.723 6.28992 122.72 1.70448C118.719 1.87474 114.788 3.35147 111.858 5.8215ZM124.584 1.7026C124.566 3.55371 124.582 5.40576 124.576 7.2578C124.59 12.4227 124.551 17.5884 124.596 22.7523C124.972 22.2632 125.27 21.73 125.61 21.2201C128.898 16.0947 132.21 10.9826 135.482 5.84878C132.541 3.36653 128.603 1.87661 124.584 1.7026ZM106.17 16.7616C105.987 20.1703 107.074 23.6224 109.228 26.4291C112.235 30.4201 117.367 33.0539 122.72 33.2485C122.725 28.1899 122.72 23.1305 122.723 18.072C122.749 17.8942 122.652 17.7455 122.509 17.6335C118.514 14.1035 114.545 10.5471 110.543 7.02359C107.894 9.67984 106.337 13.193 106.17 16.7616ZM136.837 7.10824C132.904 13.2089 128.973 19.3107 125.062 25.4227C128.802 26.4245 132.549 27.4008 136.294 28.3847C139.643 25.2957 141.412 20.8928 141.121 16.5839C140.913 13.1149 139.398 9.70622 136.837 7.10824ZM124.585 27.0593C124.57 29.124 124.573 31.1895 124.583 33.2541C128.254 33.0933 131.868 31.8451 134.694 29.7231C131.331 28.8174 127.959 27.9332 124.585 27.0593Z" fill="#01B87A"/>
<path d="M79.0158 3.61244C79.3054 3.04808 80.0757 2.74051 80.7296 2.95873C81.4144 3.15719 81.8346 3.89086 81.5955 4.50883C81.4136 4.9528 81.1268 5.3535 80.8972 5.77771C80.0574 7.26198 79.1721 8.72652 78.3596 10.2229C81.5216 10.2324 84.6851 10.2229 87.847 10.2268C89.5646 10.2333 91.2782 10.6745 92.7384 11.4938C94.3773 12.4051 95.6961 13.7784 96.4588 15.3756C97.2095 16.9361 97.4169 18.7017 97.0562 20.3701C96.4921 23.0932 94.3456 25.4871 91.5245 26.5698C90.336 27.0353 89.0395 27.2695 87.7437 27.2649C78.4783 27.2639 69.2128 27.2667 59.9473 27.2629C59.9233 20.4981 59.9484 13.7324 59.9348 6.96662C59.8817 6.35524 60.3473 5.74103 61.0232 5.61875C61.7366 5.45696 62.5313 5.90657 62.6719 6.56029C62.7532 7.00708 62.699 7.46327 62.7126 7.91476C62.7188 13.5263 62.699 19.138 62.7219 24.7496C71.0616 24.7713 79.4023 24.7525 87.7429 24.7591C89.3493 24.7703 90.9509 24.2399 92.1592 23.2814C93.4145 22.3013 94.2423 20.8847 94.4131 19.392C94.6236 17.73 94.0079 16.0021 92.7702 14.7585C91.5674 13.5227 89.7823 12.7692 87.9598 12.7372C83.2336 12.7231 78.5086 12.7475 73.7832 12.725C75.508 9.6793 77.2743 6.65152 79.0158 3.61244Z" fill="#01B87A"/>
<path d="M17.3291 5.92366C17.8384 5.47593 18.7258 5.48345 19.2278 5.93683C19.5475 6.19644 19.6715 6.59243 19.66 6.97055C19.659 12.8964 19.6548 18.8222 19.6622 24.7479C25.7978 24.7771 31.9357 24.7517 38.0724 24.7602C39.2755 24.7442 40.5054 24.8448 41.6772 24.5363C43.9383 23.9955 45.8235 22.3541 46.5099 20.3355C46.7839 19.5765 46.8515 18.7742 46.8338 17.9803C46.8338 16.7236 46.8275 15.467 46.8348 14.2103C46.8204 13.7297 47.1307 13.2585 47.6151 13.0534C48.1515 12.8061 48.8544 12.9321 49.2502 13.3412C49.5199 13.599 49.6179 13.9602 49.6096 14.3072C49.6044 15.753 49.6148 17.1996 49.6044 18.6453C49.5637 21.6646 47.6379 24.5758 44.7414 26.0733C43.2645 26.853 41.5563 27.2678 39.8451 27.2659C32.197 27.2659 24.549 27.2688 16.9009 27.265C16.8552 20.5332 16.8989 13.8003 16.8792 7.06743C16.8583 6.65357 16.9676 6.20584 17.3291 5.92366Z" fill="#01B87A"/>
<path d="M12.9082 12.9562C13.4873 12.833 14.13 13.0955 14.4133 13.5677C14.5955 13.8471 14.5955 14.1818 14.5955 14.496C14.5851 17.3525 14.5976 20.2083 14.5892 23.0649C14.5611 25.5217 13.5717 27.9551 11.8417 29.8513C9.55968 32.3928 5.96738 33.9449 2.3376 33.879C1.71164 33.8574 1.1565 33.3984 1.06276 32.8415C0.948185 32.2894 1.30752 31.6968 1.88245 31.4842C2.22407 31.3554 2.6032 31.3863 2.96566 31.3619C5.43099 31.2557 7.813 30.1984 9.44401 28.5307C10.946 27.0163 11.8104 25.0007 11.8156 22.9671C11.8198 20.0483 11.8125 17.1296 11.8187 14.2119C11.7949 13.6269 12.2729 13.072 12.9082 12.9562Z" fill="#01B87A"/>
<path d="M54.0525 12.9628C54.6337 12.8256 55.2868 13.0823 55.5794 13.5545C55.7514 13.8075 55.768 14.1123 55.769 14.401C55.7607 17.2896 55.7711 20.1782 55.7638 23.0668C55.7356 25.977 54.3369 28.8431 51.9986 30.8427C49.7655 32.7841 46.6836 33.9101 43.5809 33.8828C43.0206 33.8828 42.4914 33.5422 42.3039 33.0672C42.0655 32.5198 42.3321 31.8483 42.8966 31.5576C43.3579 31.3093 43.9173 31.4024 44.4266 31.346C47.644 31.122 50.6269 29.256 52.0299 26.6374C52.6528 25.4992 52.9808 24.2331 52.9902 22.9643C52.9943 20.0484 52.9892 17.1335 52.9933 14.2177C52.9683 13.6419 53.4277 13.0888 54.0525 12.9628Z" fill="#01B87A"/>
<path d="M29.3669 31.0166C30.3501 30.8031 31.4166 31.47 31.5499 32.3729C31.7385 33.2693 30.9511 34.1959 29.948 34.2767C29.0262 34.3895 28.0951 33.7631 27.9451 32.9354C27.7421 32.0851 28.4242 31.1774 29.3669 31.0166Z" fill="#01B87A"/>
<path d="M33.7383 31.0099C34.8245 30.7945 35.9474 31.6552 35.8994 32.6559C35.9151 33.62 34.8537 34.4422 33.7997 34.2691C32.7665 34.1552 32.0092 33.1422 32.2946 32.2346C32.4582 31.6185 33.0466 31.118 33.7383 31.0099Z" fill="#01B87A"/>
</g>
</svg>
