<svg width="76" height="63" viewBox="0 0 76 63" fill="none" xmlns="http://www.w3.org/2000/svg">
<path d="M37.2629 0.0653147C40.4674 -0.231795 43.7609 0.490446 46.5184 2.11528C49.0914 3.61533 51.1948 5.87224 52.4828 8.51811C53.9228 11.4448 54.3302 14.8371 53.6516 18.015C53.0572 20.8501 51.5865 23.4983 49.4918 25.541C47.4016 27.5926 44.6912 29.0322 41.7893 29.612C38.5447 30.2731 35.081 29.8737 32.0932 28.467C29.2239 27.1313 26.8054 24.8953 25.2776 22.1705C24.1628 20.1963 23.5181 17.97 23.4083 15.717C23.2601 12.9562 23.9142 10.1573 25.2857 7.73944C27.0992 4.50666 30.1749 1.9768 33.7465 0.797216C34.8839 0.418786 36.0665 0.172403 37.2629 0.0653147ZM29.362 4.98332C32.2175 7.73862 35.0704 10.4972 37.9434 13.2332C37.9484 9.30868 37.9465 5.3843 37.944 1.45907C34.7829 1.60482 31.677 2.86893 29.362 4.98332ZM39.4172 1.45746C39.4028 3.04204 39.4153 4.62744 39.4109 6.21282C39.4216 10.6341 39.3908 15.056 39.4266 19.4764C39.7235 19.0578 39.9589 18.6013 40.2276 18.1649C42.8256 13.7774 45.4425 9.40131 48.028 5.00667C45.7043 2.88181 42.5927 1.60641 39.4172 1.45746ZM24.8677 14.3483C24.7233 17.2662 25.582 20.2213 27.2843 22.6239C29.6602 26.0402 33.7145 28.2948 37.944 28.4614C37.9484 24.1312 37.944 19.8002 37.9465 15.47C37.9672 15.3178 37.8906 15.1905 37.7776 15.0946C34.6209 12.0729 31.4849 9.0285 28.3232 6.01233C26.2298 8.28614 24.9995 11.2935 24.8677 14.3483ZM49.0983 6.0848C45.9905 11.3071 42.8846 16.5303 39.7951 21.7624C42.7497 22.6199 45.7105 23.4557 48.6695 24.2978C51.3153 21.6536 52.7132 17.8847 52.4835 14.1961C52.319 11.2267 51.122 8.30872 49.0983 6.0848ZM39.4178 23.1633C39.4059 24.9307 39.4084 26.6989 39.4159 28.4662C42.3166 28.3286 45.172 27.2601 47.4053 25.4436C44.7476 24.6683 42.0837 23.9114 39.4178 23.1633Z" fill="#1EA965"/>
<path d="M61.6097 36.5421C61.8385 36.059 62.4472 35.7957 62.9638 35.9825C63.5048 36.1524 63.8369 36.7804 63.648 37.3094C63.5042 37.6895 63.2776 38.0325 63.0962 38.3956C62.4327 39.6662 61.7332 40.9199 61.0913 42.2008C63.5896 42.2089 66.0891 42.2008 68.5873 42.2041C69.9444 42.2097 71.2984 42.5874 72.4521 43.2887C73.7471 44.0688 74.789 45.2444 75.3916 46.6116C75.9848 47.9474 76.1487 49.4588 75.8637 50.887C75.418 53.218 73.722 55.2672 71.493 56.194C70.5539 56.5926 69.5295 56.793 68.5057 56.7891C61.185 56.7882 53.8642 56.7907 46.5434 56.7874C46.5244 50.9966 46.5443 45.205 46.5335 39.4133C46.4916 38.89 46.8594 38.3642 47.3935 38.2595C47.9572 38.121 48.5851 38.5059 48.6961 39.0655C48.7604 39.448 48.7176 39.8385 48.7283 40.225C48.7332 45.0286 48.7176 49.8323 48.7357 54.6359C55.325 54.6545 61.9151 54.6384 68.5051 54.644C69.7743 54.6537 71.0398 54.1996 71.9945 53.3791C72.9863 52.5401 73.6404 51.3275 73.7753 50.0497C73.9416 48.627 73.4552 47.1479 72.4772 46.0834C71.5269 45.0255 70.1164 44.3805 68.6765 44.3531C64.9423 44.341 61.209 44.3619 57.4753 44.3426C58.8381 41.7355 60.2338 39.1436 61.6097 36.5421Z" fill="#2F4858"/>
<path d="M12.8652 38.52C13.2676 38.1367 13.9688 38.1432 14.3654 38.5313C14.6181 38.7535 14.716 39.0925 14.7069 39.4162C14.7061 44.4888 14.7028 49.5614 14.7087 54.6339C19.5565 54.6589 24.4061 54.6371 29.2548 54.6444C30.2054 54.6308 31.1772 54.7168 32.103 54.4528C33.8895 53.9899 35.3791 52.5848 35.9214 50.8568C36.1379 50.2071 36.1913 49.5203 36.1773 48.8407C36.1773 47.765 36.1724 46.6893 36.1781 45.6135C36.1667 45.2021 36.4119 44.7988 36.7946 44.6232C37.2184 44.4115 37.7738 44.5194 38.0866 44.8696C38.2997 45.0902 38.3771 45.3995 38.3705 45.6965C38.3664 46.9341 38.3746 48.1724 38.3664 49.41C38.3342 51.9946 36.8127 54.4866 34.5241 55.7685C33.3572 56.4359 32.0075 56.791 30.6554 56.7894C24.6126 56.7894 18.5698 56.7918 12.527 56.7886C12.4908 51.026 12.5254 45.2626 12.5098 39.4991C12.4932 39.1448 12.5796 38.7615 12.8652 38.52Z" fill="#2F4858"/>
<path d="M9.37603 44.5396C9.83363 44.4341 10.3414 44.6588 10.5652 45.063C10.7092 45.3021 10.7092 45.5887 10.7092 45.8577C10.701 48.3029 10.7108 50.7475 10.7043 53.1928C10.682 55.2959 9.90029 57.3789 8.53341 59.0021C6.73033 61.1777 3.892 62.5063 1.02406 62.4499C0.529483 62.4314 0.090857 62.0385 0.0167943 61.5618C-0.0737329 61.0892 0.210183 60.5819 0.664445 60.3999C0.934364 60.2897 1.23392 60.3161 1.5203 60.2952C3.46819 60.2043 5.35025 59.2992 6.63894 57.8717C7.82567 56.5753 8.50867 54.8499 8.51275 53.109C8.51608 50.6106 8.51031 48.1121 8.5152 45.6145C8.49637 45.1137 8.87406 44.6387 9.37603 44.5396Z" fill="#2F4858"/>
<path d="M41.8825 44.5452C42.3417 44.4277 42.8577 44.6475 43.089 45.0517C43.2248 45.2683 43.238 45.5292 43.2387 45.7764C43.2322 48.2491 43.2404 50.7218 43.2347 53.1944C43.2124 55.6856 42.1072 58.1391 40.2597 59.8508C38.4953 61.5126 36.0603 62.4765 33.6087 62.4532C33.1661 62.4532 32.7479 62.1616 32.5998 61.755C32.4114 61.2864 32.6221 60.7116 33.0681 60.4628C33.4326 60.2502 33.8745 60.3299 34.277 60.2816C36.819 60.0899 39.1759 58.4925 40.2845 56.2509C40.7766 55.2766 41.0358 54.1928 41.0432 53.1067C41.0464 50.6106 41.0423 48.1154 41.0456 45.6194C41.0259 45.1266 41.3888 44.6531 41.8825 44.5452Z" fill="#2F4858"/>
<path d="M22.3763 60.0011C23.1532 59.8183 23.9959 60.3891 24.1012 61.1621C24.2502 61.9294 23.628 62.7226 22.8355 62.7918C22.1072 62.8884 21.3715 62.3521 21.253 61.6436C21.0926 60.9157 21.6316 60.1388 22.3763 60.0011Z" fill="#2F4858"/>
<path d="M25.8302 59.9954C26.6885 59.8109 27.5757 60.5477 27.5378 61.4044C27.5502 62.2296 26.7115 62.9334 25.8788 62.7852C25.0624 62.6878 24.4641 61.8206 24.6896 61.0437C24.8188 60.5163 25.2838 60.0879 25.8302 59.9954Z" fill="#2F4858"/>
</svg>
