<svg width="246" height="50" viewBox="0 0 246 50" fill="none" xmlns="http://www.w3.org/2000/svg">
<g clip-path="url(#clip0_2785_1170)">
<path d="M245.992 29.7818L225.799 50.0006H214.765L234.957 29.7818L226.792 21.6058L232.309 16.0815L245.992 29.7818Z" fill="#FB7A01"/>
<path d="M218.053 21.6052L226.219 29.7812L220.702 35.3056L207.019 21.6052L228.597 0H239.631L218.053 21.6052Z" fill="#1EA965"/>
<path d="M204.803 0H197V50H204.803V0Z" fill="#1EA965"/>
</g>
<path d="M32.5605 27.8906C32.3145 25.4297 31.6309 24.1947 30.5098 24.1855C30.209 24.1855 29.9492 24.2812 29.7305 24.4727C29.5117 24.6641 29.3203 24.9922 29.1562 25.457C29.0104 25.8854 28.9375 26.291 28.9375 26.6738C28.9375 26.9473 28.9922 27.1706 29.1016 27.3438C29.2109 27.5078 29.416 27.64 29.7168 27.7402C30.0176 27.8405 30.4277 27.8906 30.9473 27.8906H32.5605ZM35.9375 27.9043H36.8535C36.9811 27.9043 37.0951 27.9271 37.1953 27.9727C37.2956 28.0091 37.373 28.0729 37.4277 28.1641C37.4915 28.2552 37.5417 28.3372 37.5781 28.4102C37.6146 28.4831 37.6374 28.5924 37.6465 28.7383C37.6647 28.8841 37.6738 28.9889 37.6738 29.0527C37.6829 29.1165 37.6829 29.2259 37.6738 29.3809C37.6738 29.5267 37.6738 29.6042 37.6738 29.6133V29.75C37.6738 29.7956 37.6738 29.8594 37.6738 29.9414C37.6829 30.0143 37.6784 30.1556 37.6602 30.3652C37.6419 30.5658 37.6055 30.7435 37.5508 30.8984C37.5052 31.0534 37.4186 31.1947 37.291 31.3223C37.1725 31.4408 37.0267 31.5 36.8535 31.5L35.7734 31.4863C35.3268 33.4551 34.2878 34.9954 32.6562 36.1074C31.0339 37.2285 28.8646 37.9258 26.1484 38.1992L25.6836 38.2402L25.5742 37.7891L24.9863 35.4375L24.8359 34.8359L25.4512 34.7676C29.0788 34.3757 31.3529 33.2865 32.2734 31.5H31.084C29.3066 31.5 27.9349 31.1081 26.9688 30.3242C26.0117 29.5404 25.5332 28.3919 25.5332 26.8789C25.5332 25.694 25.7884 24.5684 26.2988 23.502C26.6087 22.8548 26.9779 22.3125 27.4062 21.875C27.8346 21.4284 28.3223 21.0911 28.8691 20.8633C29.4251 20.6263 30.0267 20.5078 30.6738 20.5078C32.196 20.5078 33.39 21.1458 34.2559 22.4219C35.1309 23.6979 35.6914 25.5254 35.9375 27.9043ZM37.7148 31.5H36.6758C36.2292 31.5 35.8965 31.3314 35.6777 30.9941C35.4499 30.6569 35.3359 30.2422 35.3359 29.75V29.4902C35.3359 29.0436 35.4544 28.6654 35.6914 28.3555C35.9193 28.0456 36.2474 27.8906 36.6758 27.8906H37.7148C39.0729 27.8906 39.9707 27.7676 40.4082 27.5215C41.0007 27.1751 41.2969 26.3822 41.2969 25.1426C41.2969 24.1035 41.1374 22.9414 40.8184 21.6562L40.6816 21.123L41.2148 21L43.4434 20.4395L43.9355 20.3027L44.0996 20.7949C44.5553 22.2715 44.7832 23.707 44.7832 25.1016C44.7741 27.5169 44.0632 29.2624 42.6504 30.3379C42.377 30.5384 42.0671 30.7161 41.7207 30.8711C41.3835 31.0169 41.0052 31.1354 40.5859 31.2266C40.1758 31.3177 39.7337 31.3861 39.2598 31.4316C38.7858 31.4772 38.2708 31.5 37.7148 31.5ZM36.2656 35.6289L38.248 33.6328L38.4531 33.4277L38.6582 33.6328L40.668 35.6426L40.6816 35.6562L40.709 35.6289L42.7051 33.6328L42.9102 33.4277L43.1152 33.6328L45.1113 35.6426L45.3164 35.8477L45.1113 36.0527L43.1289 38.0352L42.9238 38.2402L42.7188 38.0352L40.709 36.0391L40.6953 36.0254L40.668 36.0527L38.6719 38.0352L38.4668 38.2402L38.2754 38.0352L36.2656 36.0391L36.0605 35.834L36.2656 35.6289ZM47.5723 27.5352C48.6842 27.763 49.7461 27.877 50.7578 27.877C53.7656 27.877 55.2695 27.2344 55.2695 25.9492C55.2695 25.1471 54.8229 24.2402 53.9297 23.2285C53.0365 22.2168 51.6784 21.1367 49.8555 19.9883L49.377 19.6875L49.6914 19.2227L51.0586 17.1445L51.3457 16.707L51.7969 16.9805C56.4818 19.7695 58.8242 22.7454 58.8242 25.9082C58.8242 26.6556 58.7103 27.3301 58.4824 27.9316C58.2546 28.5332 57.9219 29.0527 57.4844 29.4902C57.0469 29.9277 56.5046 30.2969 55.8574 30.5977C55.2194 30.8893 54.4902 31.1081 53.6699 31.2539C52.8496 31.3997 51.9382 31.4727 50.9355 31.4727C49.5592 31.4727 48.3607 31.3587 47.3398 31.1309L46.916 31.0352V30.5977V28.0684V27.3984L47.5723 27.5352ZM67.6973 27.8906C67.4512 25.4297 66.7676 24.1947 65.6465 24.1855C65.3457 24.1855 65.0859 24.2812 64.8672 24.4727C64.6484 24.6641 64.457 24.9922 64.293 25.457C64.1471 25.8854 64.0742 26.291 64.0742 26.6738C64.0742 26.9473 64.1289 27.1706 64.2383 27.3438C64.3477 27.5078 64.5527 27.64 64.8535 27.7402C65.1543 27.8405 65.5645 27.8906 66.084 27.8906H67.6973ZM71.0742 27.9043H71.9902C72.1178 27.9043 72.2318 27.9271 72.332 27.9727C72.4323 28.0091 72.5098 28.0729 72.5645 28.1641C72.6283 28.2552 72.6784 28.3372 72.7148 28.4102C72.7513 28.4831 72.7741 28.5924 72.7832 28.7383C72.8014 28.8841 72.8105 28.9889 72.8105 29.0527C72.8197 29.1165 72.8197 29.2259 72.8105 29.3809C72.8105 29.5267 72.8105 29.6042 72.8105 29.6133V29.75C72.8105 29.7956 72.8105 29.8594 72.8105 29.9414C72.8197 30.0143 72.8151 30.1556 72.7969 30.3652C72.7786 30.5658 72.7422 30.7435 72.6875 30.8984C72.6419 31.0534 72.5553 31.1947 72.4277 31.3223C72.3092 31.4408 72.1634 31.5 71.9902 31.5L70.9102 31.4863C70.4635 33.4551 69.4245 34.9954 67.793 36.1074C66.1706 37.2285 64.0013 37.9258 61.2852 38.1992L60.8203 38.2402L60.7109 37.7891L60.123 35.4375L59.9727 34.8359L60.5879 34.7676C64.2155 34.3757 66.4896 33.2865 67.4102 31.5H66.2207C64.4434 31.5 63.0716 31.1081 62.1055 30.3242C61.1484 29.5404 60.6699 28.3919 60.6699 26.8789C60.6699 25.694 60.9251 24.5684 61.4355 23.502C61.7454 22.8548 62.1146 22.3125 62.543 21.875C62.9714 21.4284 63.459 21.0911 64.0059 20.8633C64.5618 20.6263 65.1634 20.5078 65.8105 20.5078C67.3327 20.5078 68.5267 21.1458 69.3926 22.4219C70.2676 23.6979 70.8281 25.5254 71.0742 27.9043ZM82.6406 29.75C82.6406 29.7773 82.6406 29.8503 82.6406 29.9688C82.6406 30.0872 82.6406 30.1829 82.6406 30.2559C82.6406 30.3197 82.6361 30.4108 82.627 30.5293C82.6178 30.6478 82.6042 30.748 82.5859 30.8301C82.5677 30.903 82.5358 30.9896 82.4902 31.0898C82.4538 31.181 82.4036 31.2539 82.3398 31.3086C82.2852 31.3633 82.2122 31.4089 82.1211 31.4453C82.0299 31.4818 81.9297 31.5 81.8203 31.5H81.6836C79.9974 31.5 78.735 30.9805 77.8965 29.9414C76.8483 30.9805 75.2897 31.5 73.2207 31.5H71.7988C71.3522 31.5 71.0195 31.3314 70.8008 30.9941C70.582 30.6478 70.4727 30.2331 70.4727 29.75V29.4902C70.4727 29.1986 70.5182 28.9388 70.6094 28.7109C70.7005 28.474 70.8509 28.278 71.0605 28.123C71.2611 27.9681 71.5072 27.8906 71.7988 27.8906H73.1523C74.957 27.8906 75.9414 27.4395 76.1055 26.5371C76.1602 26.2454 76.1875 25.8991 76.1875 25.498C76.1875 25.0514 76.1738 24.6322 76.1465 24.2402L76.0781 23.1191L76.0371 22.5996L76.5566 22.5449L78.8125 22.2715L79.373 22.2168L79.4141 22.7773L79.6328 25.9492C79.6875 26.6419 79.8743 27.1387 80.1934 27.4395C80.5124 27.7402 81.0182 27.8906 81.7109 27.8906H81.8203C81.9479 27.8906 82.0618 27.9134 82.1621 27.959C82.2624 27.9954 82.3398 28.0592 82.3945 28.1504C82.4492 28.2415 82.4948 28.3281 82.5312 28.4102C82.5768 28.4831 82.6042 28.5924 82.6133 28.7383C82.6315 28.875 82.6406 28.9753 82.6406 29.0391C82.6406 29.1029 82.6406 29.2122 82.6406 29.3672C82.6406 29.513 82.6406 29.5951 82.6406 29.6133V29.75ZM71.5801 17.3223L73.5625 15.3262L73.7676 15.1211L73.9727 15.3262L75.9824 17.3359L75.9961 17.3496L76.0234 17.3223L78.0195 15.3262L78.2246 15.1211L78.4297 15.3262L80.4258 17.3359L80.6309 17.541L80.4258 17.7461L78.4434 19.7285L78.2383 19.9336L78.0332 19.7285L76.0234 17.7324L76.0098 17.7188L75.9824 17.7461L73.9863 19.7285L73.7812 19.9336L73.5898 19.7285L71.5801 17.7324L71.375 17.5273L71.5801 17.3223ZM92.6348 26.3184C92.6803 26.0905 92.7031 25.8079 92.7031 25.4707C92.7031 25.334 92.6986 25.2018 92.6895 25.0742C92.6895 24.9375 92.6849 24.8008 92.6758 24.6641C92.6667 24.5273 92.6576 24.3906 92.6484 24.2539L92.5801 23.4199L92.5254 22.8867L93.0586 22.832L95.3008 22.5586L95.875 22.5039L95.916 23.0645L96.1348 26.2363C96.1439 26.4095 96.1621 26.569 96.1895 26.7148C96.2259 26.8516 96.2624 26.9792 96.2988 27.0977C96.3444 27.207 96.3991 27.3073 96.4629 27.3984C96.5358 27.4805 96.6133 27.5534 96.6953 27.6172C96.7773 27.681 96.8685 27.7311 96.9688 27.7676C97.0781 27.804 97.1966 27.8314 97.3242 27.8496C97.4518 27.8678 97.5885 27.877 97.7344 27.877C98.2357 27.877 98.6094 27.7038 98.8555 27.3574C99.1016 27.002 99.2246 26.3822 99.2246 25.498C99.2246 24.6139 99.0332 23.502 98.6504 22.1621L98.4863 21.6289L99.0332 21.4785L101.371 20.8496L101.877 20.7129L102.027 21.2188C102.501 22.7135 102.734 24.1081 102.725 25.4023C102.725 25.4206 102.725 25.4342 102.725 25.4434C102.725 25.4525 102.725 25.4661 102.725 25.4844C102.715 27.7174 102.1 29.3717 100.879 30.4473C100.086 31.14 99.056 31.4863 97.7891 31.4863C97.2878 31.4863 96.8229 31.4316 96.3945 31.3223C95.9753 31.2129 95.5924 31.0488 95.2461 30.8301C94.8997 30.6022 94.6035 30.3197 94.3574 29.9824C93.3822 30.9941 92.1152 31.5 90.5566 31.5C88.7975 31.4909 87.5306 30.9941 86.7559 30.0098C85.8262 31.0033 84.3724 31.5 82.3945 31.5H81.6289C81.1823 31.5 80.8496 31.3314 80.6309 30.9941C80.403 30.6569 80.2891 30.2422 80.2891 29.75V29.4902C80.2891 29.0436 80.4076 28.6654 80.6445 28.3555C80.8724 28.0456 81.2005 27.8906 81.6289 27.8906H82.4219C83.2695 27.8906 83.903 27.763 84.3223 27.5078C84.7415 27.2435 85.0059 26.847 85.1152 26.3184C85.1608 26.0905 85.1836 25.8079 85.1836 25.4707C85.1836 25.3431 85.179 25.2155 85.1699 25.0879C85.1699 24.9512 85.1654 24.8145 85.1562 24.6777C85.1471 24.541 85.138 24.3997 85.1289 24.2539L85.0469 23.4199L85.0059 22.8867L85.5254 22.832L87.7812 22.5586L88.3555 22.5039L88.3965 23.0645L88.6152 26.2363C88.6517 26.8197 88.8203 27.2435 89.1211 27.5078C89.4219 27.763 89.9095 27.8906 90.584 27.8906C91.2038 27.8906 91.6732 27.7676 91.9922 27.5215C92.3112 27.2754 92.5254 26.8743 92.6348 26.3184ZM105.787 11.8398H108.152H108.699V12.3867V30.9395V31.4863H108.152H105.787H105.24V30.9395V12.3867V11.8398H105.787ZM127.252 23.4609C128.045 25.2747 128.441 27.0247 128.441 28.7109C128.441 31.5 127.589 33.6921 125.885 35.2871C124.18 36.8822 121.683 37.8529 118.393 38.1992L117.914 38.2539L117.805 37.7891L117.217 35.4648L117.066 34.8496L117.695 34.7812C120.184 34.5352 122.016 33.9199 123.191 32.9355C124.367 31.9603 124.951 30.6068 124.941 28.875C124.941 27.5625 124.604 26.1816 123.93 24.7324L123.67 24.1855L124.244 23.9805L126.568 23.1738L127.047 22.9961L127.252 23.4609ZM137.807 29.7363C137.816 30.3288 137.793 30.7207 137.738 30.9121C137.602 31.304 137.351 31.5 136.986 31.5H136.699C134.785 31.5 133.331 30.944 132.338 29.832C131.344 28.7109 130.848 27.1068 130.848 25.0195V12.3867V11.8398H131.395H133.773H134.32V12.3867V24.9922C134.32 26.0221 134.512 26.765 134.895 27.2207C135.286 27.6673 135.902 27.8906 136.74 27.8906H136.986C137.096 27.8906 137.191 27.9089 137.273 27.9453C137.365 27.9818 137.442 28.0228 137.506 28.0684C137.561 28.1139 137.606 28.1868 137.643 28.2871C137.688 28.3783 137.72 28.4557 137.738 28.5195C137.757 28.5742 137.77 28.6654 137.779 28.793C137.798 28.9115 137.807 28.9935 137.807 29.0391C137.807 29.0846 137.807 29.1712 137.807 29.2988C137.807 29.4173 137.807 29.4811 137.807 29.4902V29.7363ZM137.848 31.5H136.809C136.362 31.5 136.029 31.3314 135.811 30.9941C135.583 30.6569 135.469 30.2422 135.469 29.75V29.4902C135.469 29.0436 135.587 28.6654 135.824 28.3555C136.052 28.0456 136.38 27.8906 136.809 27.8906H137.848C139.206 27.8906 140.104 27.7676 140.541 27.5215C141.133 27.1751 141.43 26.3822 141.43 25.1426C141.43 24.1035 141.27 22.9414 140.951 21.6562L140.814 21.123L141.348 21L143.576 20.4395L144.068 20.3027L144.232 20.7949C144.688 22.2715 144.916 23.707 144.916 25.1016C144.907 27.5169 144.196 29.2624 142.783 30.3379C142.51 30.5384 142.2 30.7161 141.854 30.8711C141.516 31.0169 141.138 31.1354 140.719 31.2266C140.309 31.3177 139.867 31.3861 139.393 31.4316C138.919 31.4772 138.404 31.5 137.848 31.5ZM136.398 35.6289L138.381 33.6328L138.586 33.4277L138.791 33.6328L140.801 35.6426L140.814 35.6562L140.842 35.6289L142.838 33.6328L143.043 33.4277L143.248 33.6328L145.244 35.6426L145.449 35.8477L145.244 36.0527L143.262 38.0352L143.057 38.2402L142.852 38.0352L140.842 36.0391L140.828 36.0254L140.801 36.0527L138.805 38.0352L138.6 38.2402L138.408 38.0352L136.398 36.0391L136.193 35.834L136.398 35.6289ZM156.373 23.4609C157.166 25.2747 157.562 27.0247 157.562 28.7109C157.562 31.5 156.71 33.6921 155.006 35.2871C153.301 36.8822 150.804 37.8529 147.514 38.1992L147.035 38.2539L146.926 37.7891L146.338 35.4648L146.188 34.8496L146.816 34.7812C149.305 34.5352 151.137 33.9199 152.312 32.9355C153.488 31.9603 154.072 30.6068 154.062 28.875C154.062 27.5625 153.725 26.1816 153.051 24.7324L152.791 24.1855L153.365 23.9805L155.689 23.1738L156.168 22.9961L156.373 23.4609ZM166.928 29.7363C166.937 30.3288 166.914 30.7207 166.859 30.9121C166.723 31.304 166.472 31.5 166.107 31.5H165.82C163.906 31.5 162.452 30.944 161.459 29.832C160.465 28.7109 159.969 27.1068 159.969 25.0195V12.3867V11.8398H160.516H162.895H163.441V12.3867V24.9922C163.441 26.0221 163.633 26.765 164.016 27.2207C164.408 27.6673 165.023 27.8906 165.861 27.8906H166.107C166.217 27.8906 166.312 27.9089 166.395 27.9453C166.486 27.9818 166.563 28.0228 166.627 28.0684C166.682 28.1139 166.727 28.1868 166.764 28.2871C166.809 28.3783 166.841 28.4557 166.859 28.5195C166.878 28.5742 166.891 28.6654 166.9 28.793C166.919 28.9115 166.928 28.9935 166.928 29.0391C166.928 29.0846 166.928 29.1712 166.928 29.2988C166.928 29.4173 166.928 29.4811 166.928 29.4902V29.7363ZM174.639 21.5605C175.277 22.2441 175.755 22.9733 176.074 23.748C176.393 24.5228 176.544 25.3294 176.525 26.168C176.498 27.9635 175.737 29.3034 174.242 30.1875C172.757 31.0625 170.637 31.5 167.885 31.5H165.93C165.483 31.5 165.15 31.3314 164.932 30.9941C164.704 30.6569 164.59 30.2422 164.59 29.75V29.4902C164.59 29.0436 164.708 28.6654 164.945 28.3555C165.173 28.0456 165.501 27.8906 165.93 27.8906H167.871C171.262 27.8815 172.966 27.1934 172.984 25.8262C172.984 25.0879 172.57 24.3314 171.74 23.5566C171.048 22.9095 170.391 22.3216 169.771 21.793C169.152 21.2552 168.573 20.7767 168.035 20.3574C166.859 19.4368 166.271 18.4388 166.271 17.3633C166.271 16.6523 166.467 16.0417 166.859 15.5312C167.26 15.0208 167.821 14.6289 168.541 14.3555L178.016 10.7598L178.754 10.4727V11.2656V13.7402V14.1094L178.398 14.2461L170.086 17.3496C172.118 19.0814 173.636 20.485 174.639 21.5605Z" fill="#2F4858"/>
<defs>
<clipPath id="clip0_2785_1170">
<rect width="49" height="50" fill="white" transform="translate(197)"/>
</clipPath>
</defs>
</svg>
